<svg height="512pt" viewBox="0 0 512 512" width="512pt" xmlns="http://www.w3.org/2000/svg"><path d="m8.535156 76.800781c4.710938 0 8.53125-3.820312 8.53125-8.535156v-25.597656c0-14.140625 11.460938-25.601563 25.601563-25.601563h25.597656c4.714844 0 8.535156-3.820312 8.535156-8.53125 0-4.714844-3.820312-8.535156-8.535156-8.535156h-25.597656c-23.554688.0273438-42.6406252 19.113281-42.667969 42.667969v25.597656c0 4.714844 3.820312 8.535156 8.535156 8.535156zm0 0"/><path d="m42.667969 512h25.597656c4.714844 0 8.535156-3.820312 8.535156-8.535156 0-4.710938-3.820312-8.53125-8.535156-8.53125h-25.597656c-14.140625 0-25.601563-11.460938-25.601563-25.601563v-25.597656c0-4.714844-3.820312-8.535156-8.53125-8.535156-4.714844 0-8.535156 3.820312-8.535156 8.535156v25.597656c.0273438 23.554688 19.113281 42.640625 42.667969 42.667969zm0 0"/><path d="m503.464844 435.199219c-4.710938 0-8.53125 3.820312-8.53125 8.535156v25.597656c0 14.140625-11.460938 25.601563-25.601563 25.601563h-25.597656c-4.714844 0-8.535156 3.820312-8.535156 8.53125 0 4.714844 3.820312 8.535156 8.535156 8.535156h25.597656c23.554688-.027344 42.640625-19.113281 42.667969-42.667969v-25.597656c0-4.714844-3.820312-8.535156-8.535156-8.535156zm0 0"/><path d="m469.332031 0h-25.597656c-4.714844 0-8.535156 3.820312-8.535156 8.535156 0 4.710938 3.820312 8.53125 8.535156 8.53125h25.597656c14.140625 0 25.601563 11.460938 25.601563 25.601563v25.597656c0 4.714844 3.820312 8.535156 8.53125 8.535156 4.714844 0 8.535156-3.820312 8.535156-8.535156v-25.597656c-.027344-23.554688-19.113281-42.6406252-42.667969-42.667969zm0 0"/><path d="m51.199219 68.265625v-17.066406h17.066406c4.714844 0 8.535156-3.820313 8.535156-8.53125 0-4.714844-3.820312-8.535157-8.535156-8.535157h-17.066406c-9.425781 0-17.066407 7.640626-17.066407 17.066407v17.066406c0 4.714844 3.820313 8.535156 8.535157 8.535156 4.710937 0 8.53125-3.820312 8.53125-8.535156zm0 0"/><path d="m42.667969 435.199219c-4.714844 0-8.535157 3.820312-8.535157 8.535156v17.066406c0 9.425781 7.640626 17.066407 17.066407 17.066407h17.066406c4.714844 0 8.535156-3.820313 8.535156-8.535157 0-4.710937-3.820312-8.53125-8.535156-8.53125h-17.066406v-17.066406c0-4.714844-3.820313-8.535156-8.53125-8.535156zm0 0"/><path d="m460.800781 443.734375v17.066406h-17.066406c-4.714844 0-8.535156 3.820313-8.535156 8.53125 0 4.714844 3.820312 8.535157 8.535156 8.535157h17.066406c9.425781 0 17.066407-7.640626 17.066407-17.066407v-17.066406c0-4.714844-3.820313-8.535156-8.535157-8.535156-4.710937 0-8.53125 3.820312-8.53125 8.535156zm0 0"/><path d="m460.800781 34.132812h-17.066406c-4.714844 0-8.535156 3.820313-8.535156 8.535157 0 4.710937 3.820312 8.53125 8.535156 8.53125h17.066406v17.066406c0 4.714844 3.820313 8.535156 8.53125 8.535156 4.714844 0 8.535157-3.820312 8.535157-8.535156v-17.066406c0-9.425781-7.640626-17.066407-17.066407-17.066407zm0 0"/><path d="m486.398438 238.933594c0-4.714844-3.820313-8.535156-8.53125-8.535156h-8.746094c-4.582032-111.035157-93.550782-200.003907-204.585938-204.585938v-8.746094c0-4.710937-3.824218-8.53125-8.535156-8.53125s-8.535156 3.820313-8.535156 8.53125v8.746094c-111.035156 4.582031-200.003906 93.550781-204.585938 204.585938h-8.746094c-4.710937 0-8.53125 3.820312-8.53125 8.535156 0 4.710937 3.820313 8.53125 8.53125 8.53125h8.746094c1.953125 50.050781 21.519532 97.804687 55.253906 134.828125-1.160156.632812-2.296874 1.296875-3.414062 1.929687-1.3125.722656-2.816406 1.441406-4.410156 2.210938-7.730469 2.855468-14.433594 7.953125-19.261719 14.632812-2.351563 4.589844-3.292969 9.769532-2.703125 14.890625 0 .855469.066406 1.707031.058594 2.558594v8.152344c.027344 14.125 11.472656 25.570312 25.601562 25.597656h153.460938v8.535156c0 4.710938 3.824218 8.53125 8.535156 8.53125s8.535156-3.820312 8.535156-8.53125v-8.535156h153.46875c14.128906-.027344 25.574219-11.472656 25.601563-25.597656v-8.167969c0-.851562 0-1.707031.058593-2.558594.582032-5.117187-.359374-10.292968-2.710937-14.875-4.824219-6.664062-11.519531-11.746094-19.234375-14.601562-1.597656-.765625-3.097656-1.484375-4.421875-2.207032-1.152344-.632812-2.285156-1.300781-3.414063-1.929687 33.734376-37.035156 53.300782-84.800781 55.238282-134.863281h8.746094c4.710937 0 8.53125-3.820313 8.53125-8.53125zm-400.9375 187.734375v-8.082031c0-1.09375 0-2.195313-.078126-3.285157-.28125-1.941406-.117187-3.925781.480469-5.792969 3.324219-3.40625 7.363281-6.027343 11.828125-7.683593 1.875-.902344 3.660156-1.765625 5.203125-2.609375 2.558594-1.417969 5.121094-2.902344 7.679688-4.328125 18.128906 16.921875 39.058593 30.5625 61.859375 40.3125h-78.4375c-4.714844 0-8.535156-3.820313-8.535156-8.53125zm69.792968-227.839844c2.769532.511719 5.335938 1.796875 7.410156 3.703125.589844 10.144531 1.894532 20.234375 3.90625 30.199219.761719 4.035156 1.390626 7.585937 1.792969 11.273437-6.34375-5.050781-10.992187-11.921875-13.320312-19.6875-1.53125-8.433594-1.457031-17.082031.210937-25.488281zm30.261719 63.886719c.050781-1.101563.058594-2.242188.101563-3.359375 0-.191407 0-.378907 0-.566407.101562-2.464843.230468-4.90625.230468-7.441406-.109375-7.328125-.96875-14.628906-2.558594-21.785156-4.3125-22.769531-5.5-46.023438-3.535156-69.117188 2.613282-54.34375 67.746094-57.890624 70.144532-58.027343h11.734374c2.765626.128906 67.898438 3.675781 70.511719 58.027343 1.964844 23.09375.777344 46.347657-3.535156 69.117188-1.589844 7.15625-2.449219 14.457031-2.558594 21.785156 0 2.519532.128907 4.949219.222657 7.398438v.582031c.042968 1.117187.050781 2.277344.101562 3.414063.851562 17.246093 1.414062 29.703124-15.726562 45.3125-.332032.304687-.589844.613281-.921876.921874l-.230468.230469c-7.582032 7.335938-14.292969 15.523438-20.003906 24.394531-8.105469 12.074219-11.460938 16.265626-21.390626 16.265626h-24.203124c-9.929688 0-13.285157-4.191407-21.503907-16.316407-5.703125-8.863281-12.40625-17.042969-19.984375-24.371093l-.273437-.273438c-.324219-.308594-.570313-.597656-.902344-.902344-17.136719-15.609375-16.539063-28.066406-15.71875-45.3125zm159.914063-30.011719c2.003906-9.933594 3.308593-19.996094 3.898437-30.113281 2.152344-2.027344 4.875-3.34375 7.800781-3.773438 1.683594 8.273438 1.765625 16.789063.238282 25.089844-2.3125 8.027344-7.128907 15.101562-13.746094 20.199219.398437-3.738281 1.039062-7.3125 1.808594-11.402344zm-149.164063 141.910156c4.714844 0 8.535156-3.820312 8.535156-8.535156v-27.988281c1.210938 1.707031 2.363281 3.414062 3.464844 5.042968 8.300781 12.238282 16.160156 23.800782 35.632813 23.800782h24.203124c19.480469 0 27.304688-11.5625 35.632813-23.800782 1.101563-1.628906 2.253906-3.320312 3.464844-5.042968v27.988281c0 4.714844 3.820312 8.535156 8.535156 8.535156 4.710937 0 8.53125-3.820312 8.53125-8.535156v-7.378906c2.296875 1.585937 4.761719 3.214843 7.511719 4.8125 1.371094 11.433593 3.242187 41.515625-10.976563 60.644531-18.121093 6.359375-37.082031 10.007812-56.265625 10.832031v-8.320312c0-4.714844-3.824218-8.535157-8.535156-8.535157s-8.535156 3.820313-8.535156 8.535157v8.320312c-19.183594-.824219-38.144532-4.472656-56.265625-10.832031-14.21875-19.128906-12.347657-49.210938-10.976563-60.644531 2.75-1.597657 5.214844-3.226563 7.511719-4.8125v7.378906c0 4.714844 3.820313 8.535156 8.53125 8.535156zm153.3125-3.414062c1.328125.375 2.644531.855469 3.992187 1.101562 9.972657 2.214844 19.496094 6.113281 28.160157 11.527344 1.324219.777344 2.6875 1.496094 4.019531 2.261719-12.363281 10.90625-26.042969 20.222656-40.722656 27.726562 4.039062-13.824218 5.578125-28.253906 4.550781-42.617187zm-182.5625 42.582031c-14.683594-7.5-28.363281-16.816406-40.722656-27.726562 1.332031-.765626 2.6875-1.472657 4.011719-2.25 8.648437-5.417969 18.15625-9.316407 28.117187-11.539063 1.347656-.261719 2.660156-.722656 3.992187-1.101563-1.011718 14.367188.542969 28.800782 4.601563 42.617188zm259.121094-4.265625c.585937 1.875.75 3.855469.46875 5.800781-.042969 1.09375-.082031 2.195313-.074219 3.292969v8.058594c0 4.710937-3.820312 8.53125-8.535156 8.53125h-78.429688c22.789063-9.765625 43.710938-23.414063 61.824219-40.34375 2.558594 1.414062 5.121094 2.898437 7.679687 4.316406 1.554688.855469 3.335938 1.707031 5.214844 2.621094 4.46875 1.660156 8.515625 4.289062 11.851563 7.695312zm-27.628907-35.839844c-2.730468-1.554687-5.496093-3.023437-8.210937-4.609375-10.296875-6.398437-21.617187-10.980468-33.46875-13.550781-12.113281-3.574219-23.25-9.871094-32.5625-18.40625v-18.441406c15.039063-13.769531 22.292969-34.082031 19.378906-54.261719 15.207031-7.441406 26.378907-21.1875 30.542969-37.597656 2.140625-14.21875 3.632812-38.828125-10.292969-43.84375-4.53125-1.617188-9.480469-1.640625-14.027343-.070313 0-6.828125-.1875-14.507812-.605469-23.304687-2.699219-55.976563-57.976563-73.042969-87.195313-74.238282h-12.457031c-28.859375 1.203126-84.140625 18.269532-86.835937 74.238282-.417969 8.753906-.597657 16.410156-.605469 23.238281-4.4375-1.5-9.246094-1.453125-13.652344.125-13.867187 5.035156-12.410156 29.628906-10.242187 44.222656 4.199218 16.167969 15.1875 29.730469 30.132812 37.195313-2.9375 20.183594 4.300781 40.515625 19.328125 54.304687v18.390625c-9.285156 8.574219-20.429687 14.878906-32.5625 18.414063-11.851563 2.570312-23.171875 7.152343-33.46875 13.550781-2.714844 1.589844-5.480469 3.066406-8.210937 4.609375-32.488282-34.21875-51.503907-79.03125-53.546876-126.175781h8.320313c4.714844 0 8.535156-3.820313 8.535156-8.53125 0-4.714844-3.820312-8.535156-8.535156-8.535156h-8.320313c4.546876-101.621094 85.898438-182.972657 187.519532-187.519532v8.320313c0 4.714843 3.824218 8.535156 8.535156 8.535156s8.535156-3.820313 8.535156-8.535156v-8.320313c101.621094 4.546875 182.972656 85.898438 187.519532 187.519532h-8.320313c-4.714844 0-8.535156 3.820312-8.535156 8.535156 0 4.710937 3.820312 8.53125 8.535156 8.53125h8.320313c-2.03125 47.15625-21.050782 91.984375-53.546876 126.210937zm0 0"/></svg>