<svg height="510pt" viewBox="0 0 510 510" width="510pt" xmlns="http://www.w3.org/2000/svg"><path d="m7.5 74.800781c-4.101562 0-7.5-3.402343-7.5-7.5v-25.601562c0-23 18.699219-41.699219 41.699219-41.699219h25.601562c4.097657 0 7.5 3.398438 7.5 7.5s-3.402343 7.5-7.5 7.5h-25.601562c-14.699219 0-26.699219 12-26.699219 26.699219v25.601562c0 4.097657-3.300781 7.5-7.5 7.5zm0 0"/><path d="m67.300781 510h-25.601562c-23 0-41.699219-18.699219-41.699219-41.699219v-25.601562c0-4.097657 3.398438-7.5 7.5-7.5s7.5 3.402343 7.5 7.5v25.601562c0 14.699219 12 26.699219 26.699219 26.699219h25.601562c4.097657 0 7.5 3.398438 7.5 7.5s-3.402343 7.5-7.5 7.5zm0 0"/><path d="m468.300781 510h-25.601562c-4.097657 0-7.5-3.398438-7.5-7.5s3.402343-7.5 7.5-7.5h25.601562c14.699219 0 26.699219-12 26.699219-26.699219v-25.601562c0-4.097657 3.398438-7.5 7.5-7.5s7.5 3.402343 7.5 7.5v25.601562c0 23-18.699219 41.699219-41.699219 41.699219zm0 0"/><path d="m502.5 74.800781c-4.101562 0-7.5-3.402343-7.5-7.5v-25.601562c0-14.699219-12-26.699219-26.699219-26.699219h-25.601562c-4.097657 0-7.5-3.398438-7.5-7.5s3.402343-7.5 7.5-7.5h25.601562c23 0 41.597657 18.699219 41.597657 41.601562v25.597657c.101562 4.199219-3.296876 7.601562-7.398438 7.601562zm0 0"/><path d="m41.699219 74.800781c-4.097657 0-7.5-3.402343-7.5-7.5v-17.101562c0-8.800781 7.199219-16 16-16h17.101562c4.097657 0 7.5 3.402343 7.5 7.5 0 4.101562-3.402343 7.5-7.5 7.5h-17.101562c-.597657 0-1 .5-1 1v17.101562c0 4.097657-3.398438 7.5-7.5 7.5zm0 0"/><path d="m67.300781 475.800781h-17.101562c-8.800781 0-16-7.199219-16-16v-17.101562c0-4.097657 3.402343-7.5 7.5-7.5 4.101562 0 7.5 3.402343 7.5 7.5v17.101562c0 .597657.5 1 1 1h17.101562c4.097657 0 7.5 3.398438 7.5 7.5 0 4.097657-3.402343 7.5-7.5 7.5zm0 0"/><path d="m459.800781 475.800781h-17.101562c-4.097657 0-7.5-3.402343-7.5-7.5 0-4.101562 3.402343-7.5 7.5-7.5h17.101562c.597657 0 1-.5 1-1v-17.101562c0-4.097657 3.398438-7.5 7.5-7.5 4.097657 0 7.5 3.402343 7.5 7.5v17.101562c0 8.800781-7.199219 16-16 16zm0 0"/><path d="m468.300781 74.800781c-4.101562 0-7.5-3.402343-7.5-7.5v-17.101562c0-.597657-.5-1-1-1h-17.101562c-4.097657 0-7.5-3.398438-7.5-7.5 0-4.097657 3.402343-7.5 7.5-7.5h17.101562c8.800781 0 16 7.199219 16 16v17.101562c0 4.097657-3.300781 7.5-7.5 7.5zm0 0"/><path d="m357.300781 361.300781c1.398438 13.199219 4.097657 26.300781 7.898438 39 2.101562 6.800781 4.699219 13.300781 7.800781 19.699219.898438 1.800781 1.898438 3.5 3 5.199219l-135 .402343c-3.898438-13.203124-10.5-25.402343-19.300781-36l1.101562-.402343c4.597657-1.597657 8.097657-2.800781 9.800781-3.300781 27.796876-8.699219 41.699219-21.398438 41.296876-38 0-2.296876-.898438-4.5-2.597657-6-1.699219-1.597657-3.902343-2.398438-6.199219-2.296876-2.300781.097657-4.402343 1-6 2.597657-1.601562 1.601562-2.402343 3.800781-2.402343 6.101562.101562 4.5-3.5 13.300781-29.300781 21.300781-1.796876.597657-5.5 1.796876-10.296876 3.5-4.5 1.5-9.902343 3.5-16 5.5h-.101562c-17.398438 6.296876-35.199219 11.597657-53.199219 15.898438-2.300781.5-4.601562 0-6.5-1.199219-1.902343-1.300781-3.300781-3.300781-3.699219-5.5-1.203124-3.101562-1.703124-6.402343-1.402343-9.800781.199219-1.199219.402343-2.398438.699219-3.601562 1.402343-4.597657 1.601562-9.597657.601562-14.296876-1.800781-6-6.101562-11-11.898438-13.703124.296876-.5.699219-1 1-1.398438 1.398438-1.800781 2.097657-4.101562 1.796876-6.398438-.296876-2.300781-1.5-4.402343-3.398438-5.703124 0 0-3.101562-2.296876-6-4.398438 1-1.699219 2.101562-3.699219 3.199219-5.898438 2.199219-4.800781 2.902343-10.101562 1.902343-15.300781-1.703124-8.699219-9.601562-12.699219-15.300781-15.601562-1.699219-.800781-3.300781-1.699219-4.902343-2.800781-.597657-.398438-1.597657-1.199219-2.296876-1.796876 1.398438-2.402343 3-4.601562 4.796876-6.703124 11.203124-14.296876 20.902343-29.796876 28.703124-46.199219 1.699219-2.898438 2.597657-6.097657 2.699219-9.5-.601562-6.898438-4.199219-13.199219-9.902343-17.199219-1.699219-1.5-4.296876-3.898438-4.398438-4.898438.101562-1.101562.398438-2.101562.898438-3.101562 1-2.601562 2.203124-5.199219 3.300781-7.800781 2.601562-5.300781 4.699219-10.898438 6.199219-16.597657l.5-2.101562c1.300781-6.199219 3-12.398438 5.101562-18.398438 4.800781-13.101562 12.199219-25.101562 21.800781-35.300781 11.898438-12.300781 29.699219-20.699219 54.699219-25.601562 19.101562-4.097657 38.5-6.898438 58-8.300781 34.601562-1.699219 64.300781 8.601562 96.398438 33.601562 15.402343 11.199219 26.703124 27.101562 32.203124 45.398438 4.296876 15.703124 6.296876 31.902343 6 48.101562-.101562 15.300781-4.601562 30.199219-12.902343 43-3.199219 5-6.800781 9.699219-10.5 14.800781-7.300781 9-13.5 18.898438-18.597657 29.300781-8.601562 19.296876-11.800781 40.699219-9.300781 61.699219zm0 0"/><path d="m255 501.398438c-65.800781 0-127.699219-25.597657-174.300781-72.199219-46.5-46.5-72.097657-108.398438-72.097657-174.199219s25.597657-127.699219 72.199219-174.300781c46.5-46.5 108.398438-72.097657 174.199219-72.097657s127.699219 25.597657 174.300781 72.199219c46.5 46.5 72.199219 108.398438 72.199219 174.300781 0 65.796876-25.601562 127.699219-72.199219 174.296876-46.601562 46.402343-108.5 72-174.300781 72zm0-477.796876c-127.601562 0-231.398438 103.796876-231.398438 231.398438s103.796876 231.398438 231.398438 231.398438 231.398438-103.796876 231.398438-231.398438-103.796876-231.398438-231.398438-231.398438zm0 0"/><path d="m255 49.199219c-4.101562 0-7.5-3.398438-7.5-7.5v-34.199219c0-4.101562 3.398438-7.5 7.5-7.5s7.5 3.398438 7.5 7.5v34.101562c0 4.199219-3.398438 7.597657-7.5 7.597657zm0 0"/><path d="m502.5 271h-34.101562c-4.097657 0-7.5-3.398438-7.5-7.5s3.402343-7.5 7.5-7.5h34.101562c4.101562 0 7.5 3.398438 7.5 7.5s-3.398438 7.5-7.5 7.5zm0 0"/><path d="m41.699219 271h-34.199219c-4.101562 0-7.5-3.398438-7.5-7.5s3.398438-7.5 7.5-7.5h34.101562c4.097657 0 7.5 3.398438 7.5 7.5s-3.300781 7.5-7.402343 7.5zm0 0"/><path d="m255 510c-4.101562 0-7.5-3.398438-7.5-7.5v-34.101562c0-4.097657 3.398438-7.5 7.5-7.5s7.5 3.402343 7.5 7.5v34.101562c0 4.101562-3.398438 7.5-7.5 7.5zm0 0"/></svg>