<?xml version="1.0" encoding="iso-8859-1"?>
<!-- Generator: Adobe Illustrator 19.0.0, SVG Export Plug-In . SVG Version: 6.00 Build 0)  -->
<svg version="1.1" id="Capa_1" xmlns="http://www.w3.org/2000/svg" xmlns:xlink="http://www.w3.org/1999/xlink" x="0px" y="0px"
	 viewBox="0 0 448 448" style="enable-background:new 0 0 448 448;" xml:space="preserve">
<g>
	<g>
		<path d="M230.758,16.146c-33.922,0.002-60.018,8.565-60.018,18.817c0,0-106.049,21.359-106.049,118.855
			c0,8.1,0.406,15.379,1.05,22.127h14.366C70.518,93.707,130.77,57.658,186.74,48.082v-8.715c5.814-3.034,21.432-7.198,44.018-7.198
			c77.875,0,141.666,39.99,136.642,127.754h-63.461c-121.961,0-148.775-34.254-151.287-37.92
			c-5.49-8.088-12.557-12.229-20.377-8.053c-23.627,12.59-35.686,35.93-41.252,61.994h15.535c0.035-0.205,0.066-0.397,0.114-0.66
			c7-26.478,22.703-40.466,30.221-45.785c1.713,1.817,3.428,4.002,7.026,6.947c18.418,15.082,52.054,39.498,160.022,39.498h78.004
			C395.922,70.05,324.45,16.146,230.758,16.146z"/>
	</g>
</g>
<g>
	<g>
		<ellipse cx="163.712" cy="243.65" rx="19.856" ry="23.12"/>
	</g>
</g>
<g>
	<g>
		<ellipse cx="284.232" cy="243.186" rx="19.848" ry="23.12"/>
	</g>
</g>
<g>
	<g>
		<path d="M261.13,343.549c-1.297-3.381-5.062-5.096-8.443-3.83c-24.722,9.262-32.783,9.262-57.49,0
			c-3.379-1.266-7.145,0.45-8.41,3.83c-1.266,3.381,0.449,7.146,3.828,8.412c13.859,5.207,23.602,7.802,33.344,7.802
			c9.742,0,19.466-2.596,33.344-7.802C260.681,350.695,262.395,346.93,261.13,343.549z"/>
	</g>
</g>
<g>
	<g>
		<path d="M0,191.969v128.18h84.393c13.035,77.32,106.034,111.705,139.557,111.705s126.522-34.385,139.565-111.705H448v-128.18H0z
			 M16,304.148v-96.179h40.282c-1.394,0.797-2.789,1.592-4.05,2.634c-11.031,9.11-14.906,25.797-10.633,45.774
			c4.346,20.375,14.221,35.543,31.187,47.771H16z M223.95,415.854c-25.713,0-109.74-28.918-123.133-95.705h246.275
			C333.701,386.931,249.656,415.854,223.95,415.854z M350.254,300.47c-0.152,1.074-0.328,2.332-0.519,3.678H98.156
			c-0.205-1.435-0.39-2.729-0.527-3.686c-20.955-11.07-35.054-22.474-40.39-47.43c-2.93-13.742-1-24.992,5.187-30.094
			c8.371-6.939,20.451-0.043,29.594,3.828c0.33-6.191,0.621-12.199,1.096-18.799h261.662c0.472,6.589,0.771,12.616,1.102,18.799
			c9.858-4.174,21.375-10.646,29.594-3.828c6.187,5.102,8.117,16.351,5.187,30.094C385.31,278.054,371.172,289.447,350.254,300.47z
			 M432,304.148h-56.881c16.955-12.225,26.836-27.398,31.182-47.771c4.274-19.977,0.398-36.664-10.633-45.774
			c-1.262-1.043-2.658-1.838-4.053-2.634H432V304.148z"/>
	</g>
</g>
<g>
</g>
<g>
</g>
<g>
</g>
<g>
</g>
<g>
</g>
<g>
</g>
<g>
</g>
<g>
</g>
<g>
</g>
<g>
</g>
<g>
</g>
<g>
</g>
<g>
</g>
<g>
</g>
<g>
</g>
</svg>
