<?xml version="1.0"?>
<svg xmlns="http://www.w3.org/2000/svg" xmlns:xlink="http://www.w3.org/1999/xlink" version="1.1" id="Capa_1" x="0px" y="0px" viewBox="0 0 448 448" style="enable-background:new 0 0 448 448;" xml:space="preserve" width="512px" height="512px" class=""><g><g>
	<g>
		<path d="M261.13,343.85c-1.297-3.381-5.062-5.096-8.443-3.83c-24.722,9.262-32.783,9.262-57.49,0    c-3.379-1.266-7.145,0.45-8.41,3.83c-1.266,3.381,0.449,7.146,3.828,8.412c13.859,5.207,23.602,7.802,33.344,7.802    c9.742,0,19.466-2.596,33.344-7.802C260.681,350.996,262.395,347.23,261.13,343.85z" data-original="#000000" class="active-path" data-old_color="#ffffff" fill="#ffffff"/>
	</g>
</g><g>
	<g>
		<path d="M374.195,96.981c-24.336-71.768-110.836-80.975-150.844-80.975c-39.492,0-53.266,8.512-53.266,18.817    c0,0-122.652,25.459-104.981,141.172h40.102c6.746-29.469,30.152-48.282,30.152-48.282s15.683,40.859,135.871,48.282h111.145    C385.645,153.766,384.488,127.332,374.195,96.981z" data-original="#000000" class="active-path" data-old_color="#ffffff" fill="#ffffff"/>
	</g>
</g><g>
	<g>
		<path d="M0,192.154v127.84h84.338c12.846,77.53,106.045,112,139.611,112s126.766-34.47,139.619-112H448v-127.84H0z M16,304.315    v-96.321h40.457c-1.459,0.82-2.91,1.662-4.226,2.75c-11.031,9.11-14.906,25.797-10.633,45.774    c4.313,20.213,14.078,35.617,30.797,47.797H16z M223.95,415.994c-25.75,0-110-29-123.199-96h246.408    C333.961,386.99,249.695,415.994,223.95,415.994z M350.253,300.611c-0.141,0.988-0.305,2.317-0.477,3.543H98.112    c-0.187-1.317-0.355-2.66-0.484-3.55c-20.955-11.07-35.054-22.474-40.39-47.43c-2.93-13.742-1-24.992,5.187-30.094    c4.69-3.887,10.544-3.383,16.392-1.551c10.701,22.633,25.141,34.183,25.141,34.183v-47.718H344v47.855    c0,0,13.072-11.934,24.418-34.096c6.154-2.049,12.186-2.713,17.054,1.326c6.187,5.102,8.117,16.351,5.187,30.094    C385.31,278.195,371.171,289.588,350.253,300.611z M432,207.994v96.32h-56.49c16.709-12.176,26.478-27.586,30.791-47.797    c4.274-19.977,0.398-36.664-10.633-45.774c-1.317-1.088-2.77-1.93-4.23-2.75L432,207.994L432,207.994z" data-original="#000000" class="active-path" data-old_color="#ffffff" fill="#ffffff"/>
	</g>
</g><g>
	<g>
		<ellipse cx="163.712" cy="243.95" rx="19.856" ry="23.12" data-original="#000000" class="active-path" data-old_color="#ffffff" fill="#ffffff"/>
	</g>
</g><g>
	<g>
		<ellipse cx="284.232" cy="243.486" rx="19.848" ry="23.12" data-original="#000000" class="active-path" data-old_color="#ffffff" fill="#ffffff"/>
	</g>
</g></g> </svg>
