<?xml version="1.0"?>
<svg xmlns="http://www.w3.org/2000/svg" height="512px" viewBox="0 0 512 512" width="512px" class=""><g><path d="m8.535156 76.800781c4.710938 0 8.53125-3.820312 8.53125-8.535156v-25.597656c0-14.140625 11.460938-25.601563 25.601563-25.601563h25.597656c4.714844 0 8.535156-3.820312 8.535156-8.53125 0-4.714844-3.820312-8.535156-8.535156-8.535156h-25.597656c-23.554688.0273438-42.6406252 19.113281-42.667969 42.667969v25.597656c0 4.714844 3.820312 8.535156 8.535156 8.535156zm0 0" data-original="#000000" class="active-path" data-old_color="#ffffff" fill="#ffffff"/><path d="m68.265625 494.933594h-25.597656c-14.140625 0-25.601563-11.460938-25.601563-25.601563v-25.597656c0-4.714844-3.820312-8.535156-8.53125-8.535156-4.714844 0-8.535156 3.820312-8.535156 8.535156v25.597656c.0273438 23.554688 19.113281 42.640625 42.667969 42.667969h25.597656c4.714844 0 8.535156-3.820312 8.535156-8.535156 0-4.710938-3.820312-8.53125-8.535156-8.53125zm0 0" data-original="#000000" class="active-path" data-old_color="#ffffff" fill="#ffffff"/><path d="m503.464844 435.199219c-4.710938 0-8.53125 3.820312-8.53125 8.535156v25.597656c0 14.140625-11.460938 25.601563-25.601563 25.601563h-25.597656c-4.714844 0-8.535156 3.820312-8.535156 8.53125 0 4.714844 3.820312 8.535156 8.535156 8.535156h25.597656c23.554688-.027344 42.640625-19.113281 42.667969-42.667969v-25.597656c0-4.714844-3.820312-8.535156-8.535156-8.535156zm0 0" data-original="#000000" class="active-path" data-old_color="#ffffff" fill="#ffffff"/><path d="m469.332031 0h-25.597656c-4.714844 0-8.535156 3.820312-8.535156 8.535156 0 4.710938 3.820312 8.53125 8.535156 8.53125h25.597656c14.140625 0 25.601563 11.460938 25.601563 25.601563v25.597656c0 4.714844 3.820312 8.535156 8.53125 8.535156 4.714844 0 8.535156-3.820312 8.535156-8.535156v-25.597656c-.027344-23.554688-19.113281-42.6406252-42.667969-42.667969zm0 0" data-original="#000000" class="active-path" data-old_color="#ffffff" fill="#ffffff"/><path d="m68.265625 34.132812h-17.066406c-9.425781 0-17.066407 7.640626-17.066407 17.066407v17.066406c0 4.714844 3.820313 8.535156 8.535157 8.535156 4.710937 0 8.53125-3.820312 8.53125-8.535156v-17.066406h17.066406c4.714844 0 8.535156-3.820313 8.535156-8.53125 0-4.714844-3.820312-8.535157-8.535156-8.535157zm0 0" data-original="#000000" class="active-path" data-old_color="#ffffff" fill="#ffffff"/><path d="m68.265625 460.800781h-17.066406v-17.066406c0-4.714844-3.820313-8.535156-8.53125-8.535156-4.714844 0-8.535157 3.820312-8.535157 8.535156v17.066406c0 9.425781 7.640626 17.066407 17.066407 17.066407h17.066406c4.714844 0 8.535156-3.820313 8.535156-8.535157 0-4.710937-3.820312-8.53125-8.535156-8.53125zm0 0" data-original="#000000" class="active-path" data-old_color="#ffffff" fill="#ffffff"/><path d="m443.734375 477.867188h17.066406c9.425781 0 17.066407-7.640626 17.066407-17.066407v-17.066406c0-4.714844-3.820313-8.535156-8.535157-8.535156-4.710937 0-8.53125 3.820312-8.53125 8.535156v17.066406h-17.066406c-4.714844 0-8.535156 3.820313-8.535156 8.53125 0 4.714844 3.820312 8.535157 8.535156 8.535157zm0 0" data-original="#000000" class="active-path" data-old_color="#ffffff" fill="#ffffff"/><path d="m469.332031 76.800781c4.714844 0 8.535157-3.820312 8.535157-8.535156v-17.066406c0-9.425781-7.640626-17.066407-17.066407-17.066407h-17.066406c-4.714844 0-8.535156 3.820313-8.535156 8.535157 0 4.710937 3.820312 8.53125 8.535156 8.53125h17.066406v17.066406c0 4.714844 3.820313 8.535156 8.53125 8.535156zm0 0" data-original="#000000" class="active-path" data-old_color="#ffffff" fill="#ffffff"/><path d="m503.464844 256c-.171875-133.269531-105.746094-242.519531-238.929688-247.253906v-.210938c0-4.714844-3.824218-8.535156-8.535156-8.535156s-8.535156 3.820312-8.535156 8.535156v.210938c-133.183594 4.734375-238.757813 113.984375-238.929688 247.253906-4.714844 0-8.535156 3.820312-8.535156 8.535156 0 4.710938 3.820312 8.53125 8.535156 8.53125h.65625c8.882813 126.367188 111.675782 225.671875 238.273438 230.1875v.210938c0 4.714844 3.824218 8.535156 8.535156 8.535156s8.535156-3.820312 8.535156-8.535156v-.210938c126.597656-4.515625 229.390625-103.820312 238.273438-230.1875h.65625c4.714844 0 8.535156-3.820312 8.535156-8.53125 0-4.714844-3.820312-8.535156-8.535156-8.535156zm-103.414063 179.625c.152344-1.121094.078125-2.265625-.222656-3.359375-1.601563-4.445313-3.835937-8.632813-6.636719-12.433594-1.414062-2-2.691406-4.09375-3.824218-6.265625-2.742188-5.574218-5.046876-11.359375-6.886719-17.296875-3.507813-11.757812-5.929688-23.816406-7.234375-36.019531-2.148438-18.003906.59375-36.253906 7.933594-52.835938 4.550781-9.253906 10.128906-17.960937 16.632812-25.960937 3.773438-5.03125 7.679688-10.238281 11.230469-15.800781 10.0625-15.460938 15.484375-33.480469 15.625-51.925782.375-17.90625-1.847657-35.773437-6.597657-53.042968-6.453124-21.71875-19.789062-40.75-38-54.230469-35.617187-27.640625-68.792968-39.117187-107.824218-37.121094-20.347656 1.378907-40.5625 4.230469-60.496094 8.535157-28.542969 5.691406-49.320312 15.683593-63.527344 30.546874-11.210937 11.828126-19.878906 25.824219-25.464844 41.132813-2.359374 6.695313-4.28125 13.535156-5.75 20.480469l-.488281 2.082031c-1.273437 4.660156-2.988281 9.1875-5.121093 13.523437-1.296876 2.886719-2.558594 5.769532-3.726563 8.738282-1.585937 3.628906-2.207031 7.605468-1.800781 11.546875 1.304687 6.089843 4.804687 11.492187 9.828125 15.171875 1.589843 1.304687 3.042969 2.773437 4.328125 4.378906-.238282.640625-.523438 1.261719-.855469 1.859375-7.382813 15.445313-16.429687 30.039063-26.980469 43.519531-5.46875 5.214844-8.597656 12.414063-8.679687 19.96875 1.402343 5.527344 4.992187 10.25 9.941406 13.082032 2.167969 1.488281 4.453125 2.800781 6.828125 3.925781 2.191406.988281 4.285156 2.1875 6.246094 3.582031.316406 1.578125.144531 3.210938-.496094 4.683594-.851562 1.871094-1.816406 3.484375-2.609375 4.890625-2.3125 4.046875-7.109375 12.460937.144531 18.492187 1.058594.929688 2.679688 2.210938 4.335938 3.492188-1.226563 2.664062-1.703125 5.613281-1.382813 8.53125.421875 3.070312 2.105469 5.828125 4.640625 7.613281 1.46875 1.011719 2.992188 1.945313 4.558594 2.796875 3.171875 1.800781 4.207031 2.507812 4.453125 3.464844.191406 2.144531-.050781 4.300781-.707031 6.347656-.367188 1.707031-.726563 3.371094-.964844 5.070312-.671875 5.984376.082031 12.042969 2.199219 17.679688 3.753906 12.78125 16.695312 20.53125 29.730469 17.8125 17.515624-4.164062 34.792968-9.265625 51.757812-15.285156 12.796875 8.234375 20.964844 31.429687 23.15625 40.242187.945312 3.804688 4.359375 6.476563 8.277344 6.476563l154.300781-.417969c-36.65625 26.339844-80.28125 41.261719-125.386719 42.890625v-16.855469c0-4.710937-3.824218-8.53125-8.535156-8.53125s-8.535156 3.820313-8.535156 8.53125v16.855469c-117.175782-4.492188-212.335938-96.1875-221.164063-213.121094h16.367188c4.710937 0 8.53125-3.820312 8.53125-8.53125 0-4.714844-3.820313-8.535156-8.53125-8.535156h-17.066407c.15625-123.851562 98.101563-225.472656 221.863282-230.1875v16.855469c0 4.710937 3.824218 8.53125 8.535156 8.53125s8.535156-3.820313 8.535156-8.53125v-16.855469c123.761719 4.714844 221.707032 106.335938 221.863282 230.1875h-17.066407c-4.710937 0-8.53125 3.820312-8.53125 8.535156 0 4.710938 3.820313 8.53125 8.53125 8.53125h16.367188c-4.742188 63.726563-35.769531 122.613282-85.648438 162.558594zm-133.929687-95.042969c-2.265625.050781-4.414063 1-5.976563 2.636719-1.566406 1.636719-2.414062 3.828125-2.359375 6.09375.109375 4.523438-3.550781 13.304688-29.296875 21.332031-1.84375.574219-5.496093 1.835938-10.332031 3.515625-4.457031 1.546875-9.953125 3.457032-15.96875 5.496094h-.058594c-17.421875 6.253906-35.167968 11.566406-53.164062 15.914062-2.253906.484376-4.605469.046876-6.53125-1.222656-1.925782-1.265625-3.261719-3.253906-3.707032-5.519531-1.222656-3.09375-1.699218-6.4375-1.390624-9.75.152343-1.214844.433593-2.425781.707031-3.636719 1.359375-4.648437 1.554687-9.558594.574219-14.300781-1.816407-6.042969-6.136719-11.011719-11.863282-13.65625.324219-.503906.675782-.996094 1.007813-1.421875 1.4375-1.820312 2.070312-4.144531 1.761719-6.441406-.3125-2.296875-1.546876-4.367188-3.417969-5.738282 0 0-3.105469-2.269531-5.972657-4.445312.972657-1.707031 2.082032-3.675781 3.15625-5.914062 2.214844-4.777344 2.871094-10.128907 1.878907-15.300782-1.707031-8.703125-9.558594-12.6875-15.308594-15.597656-1.699219-.777344-3.324219-1.710938-4.855469-2.78125-.582031-.417969-1.570312-1.152344-2.296875-1.785156 1.394531-2.367188 3.011719-4.601563 4.828125-6.664063 11.226563-14.320312 20.855469-29.820312 28.726563-46.222656 1.664062-2.890625 2.589843-6.148437 2.6875-9.480469-.632813-6.898437-4.246094-13.171875-9.890625-17.179687-1.707032-1.535157-4.265625-3.867188-4.402344-4.898438.09375-1.082031.382812-2.140625.851562-3.121093 1-2.628907 2.167969-5.199219 3.328126-7.773438 2.613281-5.332031 4.6875-10.910156 6.203124-16.652344l.496094-2.105468c1.304688-6.246094 3.015625-12.398438 5.121094-18.425782 4.777344-13.128906 12.195312-25.140625 21.800781-35.292968 11.707031-12.246094 29.550781-20.625 54.527344-25.597657 19.121094-4.140625 38.511719-6.898437 58.027344-8.253906 34.585937-1.707031 64.351562 8.601563 96.425781 33.5625 15.433594 11.1875 26.746094 27.152344 32.1875 45.421875 4.300781 15.664062 6.3125 31.863281 5.976562 48.101562-.105468 15.273438-4.585937 30.191407-12.914062 42.992188-3.207031 5-6.757812 9.738281-10.511719 14.753906-7.292969 9.027344-13.527343 18.859375-18.585937 29.304688-8.582032 19.390625-11.785156 40.734375-9.265625 61.789062 1.425781 13.226563 4.070312 26.296875 7.890625 39.039063 2.097656 6.761719 4.722656 13.351562 7.84375 19.703125.890625 1.800781 1.882812 3.542968 2.976562 5.222656l-135.039062.386719c-3.945313-13.183594-10.523438-25.425781-19.335938-35.996094l1.101563-.382813c4.597656-1.597656 8.0625-2.800781 9.804687-3.34375 27.785156-8.652343 41.675782-21.445312 41.285156-38.027343.011719-2.285157-.914062-4.472657-2.566406-6.050781-1.652344-1.578126-3.882812-2.40625-6.164062-2.285157zm0 0" data-original="#000000" class="active-path" data-old_color="#ffffff" fill="#ffffff"/></g> </svg>
