<svg xmlns="http://www.w3.org/2000/svg" style="display: none;"><symbol id="facial-recognition" viewBox="0 0 512 512"><title>facial-recognition</title><path d="m8.535156 76.800781c4.710938 0 8.53125-3.820312 8.53125-8.535156v-25.597656c0-14.140625 11.460938-25.601563 25.601563-25.601563h25.597656c4.714844 0 8.535156-3.820312 8.535156-8.53125 0-4.714844-3.820312-8.535156-8.535156-8.535156h-25.597656c-23.554688.0273438-42.6406252 19.113281-42.667969 42.667969v25.597656c0 4.714844 3.820312 8.535156 8.535156 8.535156zm0 0"/><path d="m42.667969 512h25.597656c4.714844 0 8.535156-3.820312 8.535156-8.535156 0-4.710938-3.820312-8.53125-8.535156-8.53125h-25.597656c-14.140625 0-25.601563-11.460938-25.601563-25.601563v-25.597656c0-4.714844-3.820312-8.535156-8.53125-8.535156-4.714844 0-8.535156 3.820312-8.535156 8.535156v25.597656c.0273438 23.554688 19.113281 42.640625 42.667969 42.667969zm0 0"/><path d="m503.464844 435.199219c-4.710938 0-8.53125 3.820312-8.53125 8.535156v25.597656c0 14.140625-11.460938 25.601563-25.601563 25.601563h-25.597656c-4.714844 0-8.535156 3.820312-8.535156 8.53125 0 4.714844 3.820312 8.535156 8.535156 8.535156h25.597656c23.554688-.027344 42.640625-19.113281 42.667969-42.667969v-25.597656c0-4.714844-3.820312-8.535156-8.535156-8.535156zm0 0"/><path d="m469.332031 0h-25.597656c-4.714844 0-8.535156 3.820312-8.535156 8.535156 0 4.710938 3.820312 8.53125 8.535156 8.53125h25.597656c14.140625 0 25.601563 11.460938 25.601563 25.601563v25.597656c0 4.714844 3.820312 8.535156 8.53125 8.535156 4.714844 0 8.535156-3.820312 8.535156-8.535156v-25.597656c-.027344-23.554688-19.113281-42.6406252-42.667969-42.667969zm0 0"/><path d="m51.199219 68.265625v-17.066406h17.066406c4.714844 0 8.535156-3.820313 8.535156-8.53125 0-4.714844-3.820312-8.535157-8.535156-8.535157h-17.066406c-9.425781 0-17.066407 7.640626-17.066407 17.066407v17.066406c0 4.714844 3.820313 8.535156 8.535157 8.535156 4.710937 0 8.53125-3.820312 8.53125-8.535156zm0 0"/><path d="m42.667969 435.199219c-4.714844 0-8.535157 3.820312-8.535157 8.535156v17.066406c0 9.425781 7.640626 17.066407 17.066407 17.066407h17.066406c4.714844 0 8.535156-3.820313 8.535156-8.535157 0-4.710937-3.820312-8.53125-8.535156-8.53125h-17.066406v-17.066406c0-4.714844-3.820313-8.535156-8.53125-8.535156zm0 0"/><path d="m460.800781 443.734375v17.066406h-17.066406c-4.714844 0-8.535156 3.820313-8.535156 8.53125 0 4.714844 3.820312 8.535157 8.535156 8.535157h17.066406c9.425781 0 17.066407-7.640626 17.066407-17.066407v-17.066406c0-4.714844-3.820313-8.535156-8.535157-8.535156-4.710937 0-8.53125 3.820312-8.53125 8.535156zm0 0"/><path d="m460.800781 34.132812h-17.066406c-4.714844 0-8.535156 3.820313-8.535156 8.535157 0 4.710937 3.820312 8.53125 8.535156 8.53125h17.066406v17.066406c0 4.714844 3.820313 8.535156 8.53125 8.535156 4.714844 0 8.535157-3.820312 8.535157-8.535156v-17.066406c0-9.425781-7.640626-17.066407-17.066407-17.066407zm0 0"/><path d="m486.398438 238.933594c0-4.714844-3.820313-8.535156-8.53125-8.535156h-8.746094c-4.582032-111.035157-93.550782-200.003907-204.585938-204.585938v-8.746094c0-4.710937-3.824218-8.53125-8.535156-8.53125s-8.535156 3.820313-8.535156 8.53125v8.746094c-111.035156 4.582031-200.003906 93.550781-204.585938 204.585938h-8.746094c-4.710937 0-8.53125 3.820312-8.53125 8.535156 0 4.710937 3.820313 8.53125 8.53125 8.53125h8.746094c1.953125 50.050781 21.519532 97.804687 55.253906 134.828125-1.160156.632812-2.296874 1.296875-3.414062 1.929687-1.3125.722656-2.816406 1.441406-4.410156 2.210938-7.730469 2.855468-14.433594 7.953125-19.261719 14.632812-2.351563 4.589844-3.292969 9.769532-2.703125 14.890625 0 .855469.066406 1.707031.058594 2.558594v8.152344c.027344 14.125 11.472656 25.570312 25.601562 25.597656h153.460938v8.535156c0 4.710938 3.824218 8.53125 8.535156 8.53125s8.535156-3.820312 8.535156-8.53125v-8.535156h153.46875c14.128906-.027344 25.574219-11.472656 25.601563-25.597656v-8.167969c0-.851562 0-1.707031.058593-2.558594.582032-5.117187-.359374-10.292968-2.710937-14.875-4.824219-6.664062-11.519531-11.746094-19.234375-14.601562-1.597656-.765625-3.097656-1.484375-4.421875-2.207032-1.152344-.632812-2.285156-1.300781-3.414063-1.929687 33.734376-37.035156 53.300782-84.800781 55.238282-134.863281h8.746094c4.710937 0 8.53125-3.820313 8.53125-8.53125zm-400.9375 187.734375v-8.082031c0-1.09375 0-2.195313-.078126-3.285157-.28125-1.941406-.117187-3.925781.480469-5.792969 3.324219-3.40625 7.363281-6.027343 11.828125-7.683593 1.875-.902344 3.660156-1.765625 5.203125-2.609375 2.558594-1.417969 5.121094-2.902344 7.679688-4.328125 18.128906 16.921875 39.058593 30.5625 61.859375 40.3125h-78.4375c-4.714844 0-8.535156-3.820313-8.535156-8.53125zm69.792968-227.839844c2.769532.511719 5.335938 1.796875 7.410156 3.703125.589844 10.144531 1.894532 20.234375 3.90625 30.199219.761719 4.035156 1.390626 7.585937 1.792969 11.273437-6.34375-5.050781-10.992187-11.921875-13.320312-19.6875-1.53125-8.433594-1.457031-17.082031.210937-25.488281zm30.261719 63.886719c.050781-1.101563.058594-2.242188.101563-3.359375 0-.191407 0-.378907 0-.566407.101562-2.464843.230468-4.90625.230468-7.441406-.109375-7.328125-.96875-14.628906-2.558594-21.785156-4.3125-22.769531-5.5-46.023438-3.535156-69.117188 2.613282-54.34375 67.746094-57.890624 70.144532-58.027343h11.734374c2.765626.128906 67.898438 3.675781 70.511719 58.027343 1.964844 23.09375.777344 46.347657-3.535156 69.117188-1.589844 7.15625-2.449219 14.457031-2.558594 21.785156 0 2.519532.128907 4.949219.222657 7.398438v.582031c.042968 1.117187.050781 2.277344.101562 3.414063.851562 17.246093 1.414062 29.703124-15.726562 45.3125-.332032.304687-.589844.613281-.921876.921874l-.230468.230469c-7.582032 7.335938-14.292969 15.523438-20.003906 24.394531-8.105469 12.074219-11.460938 16.265626-21.390626 16.265626h-24.203124c-9.929688 0-13.285157-4.191407-21.503907-16.316407-5.703125-8.863281-12.40625-17.042969-19.984375-24.371093l-.273437-.273438c-.324219-.308594-.570313-.597656-.902344-.902344-17.136719-15.609375-16.539063-28.066406-15.71875-45.3125zm159.914063-30.011719c2.003906-9.933594 3.308593-19.996094 3.898437-30.113281 2.152344-2.027344 4.875-3.34375 7.800781-3.773438 1.683594 8.273438 1.765625 16.789063.238282 25.089844-2.3125 8.027344-7.128907 15.101562-13.746094 20.199219.398437-3.738281 1.039062-7.3125 1.808594-11.402344zm-149.164063 141.910156c4.714844 0 8.535156-3.820312 8.535156-8.535156v-27.988281c1.210938 1.707031 2.363281 3.414062 3.464844 5.042968 8.300781 12.238282 16.160156 23.800782 35.632813 23.800782h24.203124c19.480469 0 27.304688-11.5625 35.632813-23.800782 1.101563-1.628906 2.253906-3.320312 3.464844-5.042968v27.988281c0 4.714844 3.820312 8.535156 8.535156 8.535156 4.710937 0 8.53125-3.820312 8.53125-8.535156v-7.378906c2.296875 1.585937 4.761719 3.214843 7.511719 4.8125 1.371094 11.433593 3.242187 41.515625-10.976563 60.644531-18.121093 6.359375-37.082031 10.007812-56.265625 10.832031v-8.320312c0-4.714844-3.824218-8.535157-8.535156-8.535157s-8.535156 3.820313-8.535156 8.535157v8.320312c-19.183594-.824219-38.144532-4.472656-56.265625-10.832031-14.21875-19.128906-12.347657-49.210938-10.976563-60.644531 2.75-1.597657 5.214844-3.226563 7.511719-4.8125v7.378906c0 4.714844 3.820313 8.535156 8.53125 8.535156zm153.3125-3.414062c1.328125.375 2.644531.855469 3.992187 1.101562 9.972657 2.214844 19.496094 6.113281 28.160157 11.527344 1.324219.777344 2.6875 1.496094 4.019531 2.261719-12.363281 10.90625-26.042969 20.222656-40.722656 27.726562 4.039062-13.824218 5.578125-28.253906 4.550781-42.617187zm-182.5625 42.582031c-14.683594-7.5-28.363281-16.816406-40.722656-27.726562 1.332031-.765626 2.6875-1.472657 4.011719-2.25 8.648437-5.417969 18.15625-9.316407 28.117187-11.539063 1.347656-.261719 2.660156-.722656 3.992187-1.101563-1.011718 14.367188.542969 28.800782 4.601563 42.617188zm259.121094-4.265625c.585937 1.875.75 3.855469.46875 5.800781-.042969 1.09375-.082031 2.195313-.074219 3.292969v8.058594c0 4.710937-3.820312 8.53125-8.535156 8.53125h-78.429688c22.789063-9.765625 43.710938-23.414063 61.824219-40.34375 2.558594 1.414062 5.121094 2.898437 7.679687 4.316406 1.554688.855469 3.335938 1.707031 5.214844 2.621094 4.46875 1.660156 8.515625 4.289062 11.851563 7.695312zm-27.628907-35.839844c-2.730468-1.554687-5.496093-3.023437-8.210937-4.609375-10.296875-6.398437-21.617187-10.980468-33.46875-13.550781-12.113281-3.574219-23.25-9.871094-32.5625-18.40625v-18.441406c15.039063-13.769531 22.292969-34.082031 19.378906-54.261719 15.207031-7.441406 26.378907-21.1875 30.542969-37.597656 2.140625-14.21875 3.632812-38.828125-10.292969-43.84375-4.53125-1.617188-9.480469-1.640625-14.027343-.070313 0-6.828125-.1875-14.507812-.605469-23.304687-2.699219-55.976563-57.976563-73.042969-87.195313-74.238282h-12.457031c-28.859375 1.203126-84.140625 18.269532-86.835937 74.238282-.417969 8.753906-.597657 16.410156-.605469 23.238281-4.4375-1.5-9.246094-1.453125-13.652344.125-13.867187 5.035156-12.410156 29.628906-10.242187 44.222656 4.199218 16.167969 15.1875 29.730469 30.132812 37.195313-2.9375 20.183594 4.300781 40.515625 19.328125 54.304687v18.390625c-9.285156 8.574219-20.429687 14.878906-32.5625 18.414063-11.851563 2.570312-23.171875 7.152343-33.46875 13.550781-2.714844 1.589844-5.480469 3.066406-8.210937 4.609375-32.488282-34.21875-51.503907-79.03125-53.546876-126.175781h8.320313c4.714844 0 8.535156-3.820313 8.535156-8.53125 0-4.714844-3.820312-8.535156-8.535156-8.535156h-8.320313c4.546876-101.621094 85.898438-182.972657 187.519532-187.519532v8.320313c0 4.714843 3.824218 8.535156 8.535156 8.535156s8.535156-3.820313 8.535156-8.535156v-8.320313c101.621094 4.546875 182.972656 85.898438 187.519532 187.519532h-8.320313c-4.714844 0-8.535156 3.820312-8.535156 8.535156 0 4.710937 3.820312 8.53125 8.535156 8.53125h8.320313c-2.03125 47.15625-21.050782 91.984375-53.546876 126.210937zm0 0"/></symbol><symbol id="facial-recognition-1" viewBox="0 0 512 512"><title>facial-recognition-1</title><g fill="#24ae5f"><path d="m8.535156 76.800781c-4.714844 0-8.535156-3.820312-8.535156-8.535156v-25.597656c.0273438-23.554688 19.113281-42.6406252 42.667969-42.667969h25.597656c4.714844 0 8.535156 3.820312 8.535156 8.535156 0 4.710938-3.820312 8.53125-8.535156 8.53125h-25.597656c-14.140625 0-25.601563 11.460938-25.601563 25.601563v25.597656c0 4.714844-3.820312 8.535156-8.53125 8.535156zm0 0"/><path d="m68.265625 512h-25.597656c-23.554688-.027344-42.6406252-19.113281-42.667969-42.667969v-25.597656c0-4.714844 3.820312-8.535156 8.535156-8.535156 4.710938 0 8.53125 3.820312 8.53125 8.535156v25.597656c0 14.140625 11.460938 25.601563 25.601563 25.601563h25.597656c4.714844 0 8.535156 3.820312 8.535156 8.53125 0 4.714844-3.820312 8.535156-8.535156 8.535156zm0 0"/><path d="m469.332031 512h-25.597656c-4.714844 0-8.535156-3.820312-8.535156-8.535156 0-4.710938 3.820312-8.53125 8.535156-8.53125h25.597656c14.140625 0 25.601563-11.460938 25.601563-25.601563v-25.597656c0-4.714844 3.820312-8.535156 8.53125-8.535156 4.714844 0 8.535156 3.820312 8.535156 8.535156v25.597656c-.027344 23.554688-19.113281 42.640625-42.667969 42.667969zm0 0"/><path d="m503.464844 76.800781c-4.710938 0-8.53125-3.820312-8.53125-8.535156v-25.597656c0-14.140625-11.460938-25.601563-25.601563-25.601563h-25.597656c-4.714844 0-8.535156-3.820312-8.535156-8.53125 0-4.714844 3.820312-8.535156 8.535156-8.535156h25.597656c23.554688.0273438 42.640625 19.113281 42.667969 42.667969v25.597656c0 4.714844-3.820312 8.535156-8.535156 8.535156zm0 0"/><path d="m42.667969 76.800781c-4.714844 0-8.535157-3.820312-8.535157-8.535156v-17.066406c0-9.425781 7.640626-17.066407 17.066407-17.066407h17.066406c4.714844 0 8.535156 3.820313 8.535156 8.535157 0 4.710937-3.820312 8.53125-8.535156 8.53125h-17.066406v17.066406c0 4.714844-3.820313 8.535156-8.53125 8.535156zm0 0"/><path d="m68.265625 477.867188h-17.066406c-9.425781 0-17.066407-7.640626-17.066407-17.066407v-17.066406c0-4.714844 3.820313-8.535156 8.535157-8.535156 4.710937 0 8.53125 3.820312 8.53125 8.535156v17.066406h17.066406c4.714844 0 8.535156 3.820313 8.535156 8.53125 0 4.714844-3.820312 8.535157-8.535156 8.535157zm0 0"/><path d="m460.800781 477.867188h-17.066406c-4.714844 0-8.535156-3.820313-8.535156-8.535157 0-4.710937 3.820312-8.53125 8.535156-8.53125h17.066406v-17.066406c0-4.714844 3.820313-8.535156 8.53125-8.535156 4.714844 0 8.535157 3.820312 8.535157 8.535156v17.066406c0 9.425781-7.640626 17.066407-17.066407 17.066407zm0 0"/><path d="m469.332031 76.800781c-4.710937 0-8.53125-3.820312-8.53125-8.535156v-17.066406h-17.066406c-4.714844 0-8.535156-3.820313-8.535156-8.53125 0-4.714844 3.820312-8.535157 8.535156-8.535157h17.066406c9.425781 0 17.066407 7.640626 17.066407 17.066407v17.066406c0 4.714844-3.820313 8.535156-8.535157 8.535156zm0 0"/></g><path d="m375.382812 303.957031c-7.941406 18.003907-10.917968 37.804688-8.621093 57.34375 1.378906 12.722657 3.921875 25.289063 7.59375 37.546875 1.980469 6.347656 4.433593 12.539063 7.339843 18.519532 3.726563 5.5625 7.066407 11.378906 9.984376 17.40625l-156.074219.425781s-9.386719-37.886719-30.71875-47.445313c-17.773438 6.332032-35.859375 11.746094-54.1875 16.214844-8.875 1.910156-17.675781-3.507812-19.96875-12.289062-1.691407-4.371094-2.304688-9.082032-1.792969-13.738282 1.414062-4.753906 1.90625-9.738281 1.453125-14.675781-1.621094-6.230469-7.597656-7.765625-12.375-11.09375-3.753906-2.730469 3.074219-11.4375 3.074219-11.4375s-7.339844-5.375-9.984375-7.679687c-2.648438-2.300782 1.109375-6.058594 4.605469-13.226563 1.414062-3.125 1.832031-6.609375 1.195312-9.984375-1.28125-6.65625-11.433594-9.128906-16.382812-12.796875-2.390626-1.707031-6.144532-4.355469-6.570313-7.425781-.683594-4.4375 4.523437-10.582032 7.082031-13.652344 10.847656-13.851562 20.144532-28.84375 27.734375-44.714844 1.023438-1.648437 1.609375-3.527344 1.707031-5.460937-.085937-8.789063-12.972656-12.460938-14.167968-20.992188-.171875-2.515625.265625-5.03125 1.28125-7.339843 3.605468-7.570313 6.683594-15.382813 9.214844-23.382813 1.53125-7.285156 3.527343-14.46875 5.972656-21.503906 5.15625-14.238281 13.207031-27.253907 23.636718-38.226563 16.378907-15.085937 36.933594-24.871094 58.96875-28.074218 19.535157-4.257813 39.355469-7.082032 59.304688-8.449219 39.851562-1.960938 71.339844 11.433593 102.144531 35.328125 16.796875 12.375 29.085938 29.90625 34.988281 49.917968 4.523438 16.449219 6.652344 33.464844 6.3125 50.519532-.15625 16.84375-5.097656 33.300781-14.25 47.445312-9.300781 14.507813-21.503906 27.050782-28.5 42.921875zm0 0" fill="#fdd7ad"/><path d="m266.324219 349.097656c.429687 18.261719-26.878907 27.050782-35.328125 29.695313-3.496094 1.109375-13.652344 4.78125-26.109375 8.960937" fill="#fdd7ad"/><path d="m235.578125 443.734375c-3.917969-.003906-7.332031-2.675781-8.277344-6.476563-2.191406-8.816406-10.402343-32.011718-23.15625-40.246093-16.964843 6.023437-34.242187 11.125-51.757812 15.285156-13.035157 2.71875-25.976563-5.03125-29.730469-17.808594-2.117188-5.636719-2.871094-11.695312-2.199219-17.683593.238281-1.703126.597657-3.410157.964844-5.066407.65625-2.046875.898437-4.207031.707031-6.347656-.246094-.957031-1.28125-1.707031-4.453125-3.464844-1.566406-.855469-3.089843-1.789062-4.558593-2.800781-2.535157-1.785156-4.214844-4.539062-4.640626-7.613281-.320312-2.914063.15625-5.863281 1.382813-8.53125-1.65625-1.28125-3.277344-2.558594-4.335937-3.492188-7.253907-6.03125-2.457032-14.445312-.144532-18.488281.792969-1.410156 1.707032-3.023438 2.609375-4.890625.640625-1.476563.8125-3.109375.496094-4.683594-1.960937-1.394531-4.054687-2.597656-6.246094-3.585937-2.375-1.125-4.660156-2.4375-6.828125-3.925782-4.949218-2.832031-8.539062-7.550781-9.941406-13.082031.082031-7.554687 3.210938-14.753906 8.679688-19.96875 10.550781-13.480469 19.597656-28.074219 26.980468-43.519531.332032-.597656.617188-1.21875.855469-1.859375-1.285156-1.605469-2.738281-3.070313-4.328125-4.378906-5.023438-3.679688-8.523438-9.078125-9.828125-15.171875-.40625-3.9375.214844-7.914063 1.800781-11.542969 1.125-2.972656 2.429688-5.855469 3.726563-8.738281 2.132812-4.335938 3.847656-8.867188 5.121093-13.527344l.488282-2.082031c1.46875-6.941407 3.390625-13.785157 5.75-20.480469 5.585937-15.304688 14.253906-29.304688 25.464844-41.128906 14.207031-14.867188 34.984374-24.859375 63.527343-30.550782 19.933594-4.304687 40.148438-7.15625 60.496094-8.53125 39.03125-1.996093 72.242187 9.480469 107.800781 37.117188 18.210938 13.480469 31.546875 32.511719 38 54.230469 4.769532 17.261719 7.015625 35.121093 6.664063 53.027343-.132813 18.441407-5.546875 36.460938-15.601563 51.925782-3.539062 5.546875-7.457031 10.769531-11.230468 15.800781-6.523438 7.996094-12.121094 16.707031-16.6875 25.960937-7.34375 16.582032-10.085938 34.832032-7.9375 52.835938 1.304687 12.203125 3.730468 24.261719 7.234374 36.019531 1.839844 5.9375 4.144532 11.722657 6.886719 17.296875 1.136719 2.171875 2.414063 4.265625 3.824219 6.265625 2.800781 3.800781 5.035156 7.988281 6.640625 12.433594.792969 2.582031.316406 5.386719-1.28125 7.5625-1.601563 2.175781-4.136719 3.464844-6.835937 3.480469l-156.074219.425781zm-12.917969-53.078125c8.8125 10.574219 15.390625 22.824219 19.335938 36.011719l135.015625-.367188c-1.09375-1.683593-2.089844-3.425781-2.980469-5.222656-3.121094-6.355469-5.742188-12.941406-7.839844-19.703125-3.824218-12.746094-6.464844-25.8125-7.894531-39.042969-2.515625-21.054687.683594-42.398437 9.269531-61.789062 5.054688-10.445313 11.289063-20.277344 18.585938-29.300781 3.753906-5.019532 7.300781-9.753907 10.511718-14.753907 8.339844-12.804687 12.828126-27.730469 12.9375-43.011719.335938-16.238281-1.675781-32.4375-5.976562-48.101562-5.40625-18.257812-16.675781-34.226562-32.066406-45.4375-32.109375-24.960938-61.875-35.277344-96.425782-33.5625-19.515624 1.355469-38.910156 4.113281-58.027343 8.25-24.976563 4.984375-42.820313 13.363281-54.527344 25.601562-9.605469 10.148438-17.027344 22.160157-21.804687 35.292969-2.101563 6.023438-3.8125 12.179688-5.117188 18.425781l-.496094 2.105469c-1.515625 5.742188-3.59375 11.316407-6.203125 16.648438-1.160156 2.558593-2.332031 5.121093-3.328125 7.773437-.472656.980469-.761718 2.039063-.855468 3.125.15625 1.03125 2.714843 3.359375 4.402343 4.898438 5.648438 4.007812 9.261719 10.28125 9.890625 17.175781-.097656 3.335937-1.019531 6.59375-2.6875 9.480469-7.867187 16.40625-17.5 31.90625-28.722656 46.226562-1.816406 2.0625-3.433594 4.292969-4.828125 6.664063.722656.632812 1.707031 1.363281 2.292969 1.78125 1.53125 1.074219 3.15625 2.003906 4.855468 2.785156 5.753907 2.910156 13.65625 6.894531 15.308594 15.597656.996094 5.171875.339844 10.523438-1.875 15.300781-1.078125 2.234376-2.1875 4.207032-3.160156 5.914063 2.828125 2.175781 5.90625 4.425781 5.976562 4.445313 1.867188 1.367187 3.101563 3.4375 3.414063 5.734374.3125 2.296876-.324219 4.625-1.761719 6.441407-.332031.425781-.679687.921875-1.003906 1.425781 5.726562 2.640625 10.046875 7.613281 11.859375 13.652344.964844 4.761718.742187 9.691406-.648437 14.34375-.273438 1.214844-.554688 2.425781-.707032 3.636718-.308594 3.316407.167969 6.65625 1.390625 9.753907.445313 2.261719 1.78125 4.25 3.707031 5.519531 1.925782 1.265625 4.277344 1.707031 6.53125 1.222656 17.996094-4.347656 35.742188-9.660156 53.164063-15.914062h.058594c6.015625-2.039063 11.511719-3.953125 15.96875-5.496094 4.835937-1.707031 8.488281-2.945312 10.332031-3.515625 25.746094-8.023437 29.40625-16.804687 29.292969-21.335937-.050781-2.261719.796875-4.453126 2.363281-6.089844 1.5625-1.636719 3.710938-2.585938 5.976562-2.636719 2.277344-.121094 4.503907.703125 6.15625 2.277344 1.652344 1.574219 2.582032 3.757812 2.574219 6.042969.390625 16.578124-13.5 29.371093-41.285156 38.023437-1.707031.546875-5.207031 1.707031-9.804687 3.34375zm-106.050781-64.128906.1875.152344zm0 0" fill="#f0785a"/><path d="m256 503.464844c-136.671875 0-247.464844-110.792969-247.464844-247.464844s110.792969-247.464844 247.464844-247.464844 247.464844 110.792969 247.464844 247.464844c-.152344 136.609375-110.855469 247.3125-247.464844 247.464844zm0-477.863282c-127.246094 0-230.398438 103.152344-230.398438 230.398438s103.152344 230.398438 230.398438 230.398438 230.398438-103.152344 230.398438-230.398438c-.140626-127.1875-103.210938-230.257812-230.398438-230.398438zm0 0" fill="#ff5364"/><path d="m256 51.199219c-4.710938 0-8.535156-3.820313-8.535156-8.53125v-34.132813c0-4.714844 3.824218-8.535156 8.535156-8.535156s8.535156 3.820312 8.535156 8.535156v34.132813c0 4.710937-3.824218 8.53125-8.535156 8.53125zm0 0" fill="#c03a2b"/><path d="m503.464844 273.066406h-34.132813c-4.710937 0-8.53125-3.820312-8.53125-8.53125 0-4.714844 3.820313-8.535156 8.53125-8.535156h34.132813c4.714844 0 8.535156 3.820312 8.535156 8.535156 0 4.710938-3.820312 8.53125-8.535156 8.53125zm0 0" fill="#c03a2b"/><path d="m42.667969 273.066406h-34.132813c-4.714844 0-8.535156-3.820312-8.535156-8.53125 0-4.714844 3.820312-8.535156 8.535156-8.535156h34.132813c4.710937 0 8.53125 3.820312 8.53125 8.535156 0 4.710938-3.820313 8.53125-8.53125 8.53125zm0 0" fill="#c03a2b"/><path d="m256 512c-4.710938 0-8.535156-3.820312-8.535156-8.535156v-34.132813c0-4.710937 3.824218-8.53125 8.535156-8.53125s8.535156 3.820313 8.535156 8.53125v34.132813c0 4.714844-3.824218 8.535156-8.535156 8.535156zm0 0" fill="#c03a2b"/></symbol><symbol id="facial-recognition-2" viewBox="0 0 510 510"><title>facial-recognition-2</title><path d="m7.5 74.800781c-4.101562 0-7.5-3.402343-7.5-7.5v-25.601562c0-23 18.699219-41.699219 41.699219-41.699219h25.601562c4.097657 0 7.5 3.398438 7.5 7.5s-3.402343 7.5-7.5 7.5h-25.601562c-14.699219 0-26.699219 12-26.699219 26.699219v25.601562c0 4.097657-3.300781 7.5-7.5 7.5zm0 0"/><path d="m67.300781 510h-25.601562c-23 0-41.699219-18.699219-41.699219-41.699219v-25.601562c0-4.097657 3.398438-7.5 7.5-7.5s7.5 3.402343 7.5 7.5v25.601562c0 14.699219 12 26.699219 26.699219 26.699219h25.601562c4.097657 0 7.5 3.398438 7.5 7.5s-3.402343 7.5-7.5 7.5zm0 0"/><path d="m468.300781 510h-25.601562c-4.097657 0-7.5-3.398438-7.5-7.5s3.402343-7.5 7.5-7.5h25.601562c14.699219 0 26.699219-12 26.699219-26.699219v-25.601562c0-4.097657 3.398438-7.5 7.5-7.5s7.5 3.402343 7.5 7.5v25.601562c0 23-18.699219 41.699219-41.699219 41.699219zm0 0"/><path d="m502.5 74.800781c-4.101562 0-7.5-3.402343-7.5-7.5v-25.601562c0-14.699219-12-26.699219-26.699219-26.699219h-25.601562c-4.097657 0-7.5-3.398438-7.5-7.5s3.402343-7.5 7.5-7.5h25.601562c23 0 41.597657 18.699219 41.597657 41.601562v25.597657c.101562 4.199219-3.296876 7.601562-7.398438 7.601562zm0 0"/><path d="m41.699219 74.800781c-4.097657 0-7.5-3.402343-7.5-7.5v-17.101562c0-8.800781 7.199219-16 16-16h17.101562c4.097657 0 7.5 3.402343 7.5 7.5 0 4.101562-3.402343 7.5-7.5 7.5h-17.101562c-.597657 0-1 .5-1 1v17.101562c0 4.097657-3.398438 7.5-7.5 7.5zm0 0"/><path d="m67.300781 475.800781h-17.101562c-8.800781 0-16-7.199219-16-16v-17.101562c0-4.097657 3.402343-7.5 7.5-7.5 4.101562 0 7.5 3.402343 7.5 7.5v17.101562c0 .597657.5 1 1 1h17.101562c4.097657 0 7.5 3.398438 7.5 7.5 0 4.097657-3.402343 7.5-7.5 7.5zm0 0"/><path d="m459.800781 475.800781h-17.101562c-4.097657 0-7.5-3.402343-7.5-7.5 0-4.101562 3.402343-7.5 7.5-7.5h17.101562c.597657 0 1-.5 1-1v-17.101562c0-4.097657 3.398438-7.5 7.5-7.5 4.097657 0 7.5 3.402343 7.5 7.5v17.101562c0 8.800781-7.199219 16-16 16zm0 0"/><path d="m468.300781 74.800781c-4.101562 0-7.5-3.402343-7.5-7.5v-17.101562c0-.597657-.5-1-1-1h-17.101562c-4.097657 0-7.5-3.398438-7.5-7.5 0-4.097657 3.402343-7.5 7.5-7.5h17.101562c8.800781 0 16 7.199219 16 16v17.101562c0 4.097657-3.300781 7.5-7.5 7.5zm0 0"/><path d="m357.300781 361.300781c1.398438 13.199219 4.097657 26.300781 7.898438 39 2.101562 6.800781 4.699219 13.300781 7.800781 19.699219.898438 1.800781 1.898438 3.5 3 5.199219l-135 .402343c-3.898438-13.203124-10.5-25.402343-19.300781-36l1.101562-.402343c4.597657-1.597657 8.097657-2.800781 9.800781-3.300781 27.796876-8.699219 41.699219-21.398438 41.296876-38 0-2.296876-.898438-4.5-2.597657-6-1.699219-1.597657-3.902343-2.398438-6.199219-2.296876-2.300781.097657-4.402343 1-6 2.597657-1.601562 1.601562-2.402343 3.800781-2.402343 6.101562.101562 4.5-3.5 13.300781-29.300781 21.300781-1.796876.597657-5.5 1.796876-10.296876 3.5-4.5 1.5-9.902343 3.5-16 5.5h-.101562c-17.398438 6.296876-35.199219 11.597657-53.199219 15.898438-2.300781.5-4.601562 0-6.5-1.199219-1.902343-1.300781-3.300781-3.300781-3.699219-5.5-1.203124-3.101562-1.703124-6.402343-1.402343-9.800781.199219-1.199219.402343-2.398438.699219-3.601562 1.402343-4.597657 1.601562-9.597657.601562-14.296876-1.800781-6-6.101562-11-11.898438-13.703124.296876-.5.699219-1 1-1.398438 1.398438-1.800781 2.097657-4.101562 1.796876-6.398438-.296876-2.300781-1.5-4.402343-3.398438-5.703124 0 0-3.101562-2.296876-6-4.398438 1-1.699219 2.101562-3.699219 3.199219-5.898438 2.199219-4.800781 2.902343-10.101562 1.902343-15.300781-1.703124-8.699219-9.601562-12.699219-15.300781-15.601562-1.699219-.800781-3.300781-1.699219-4.902343-2.800781-.597657-.398438-1.597657-1.199219-2.296876-1.796876 1.398438-2.402343 3-4.601562 4.796876-6.703124 11.203124-14.296876 20.902343-29.796876 28.703124-46.199219 1.699219-2.898438 2.597657-6.097657 2.699219-9.5-.601562-6.898438-4.199219-13.199219-9.902343-17.199219-1.699219-1.5-4.296876-3.898438-4.398438-4.898438.101562-1.101562.398438-2.101562.898438-3.101562 1-2.601562 2.203124-5.199219 3.300781-7.800781 2.601562-5.300781 4.699219-10.898438 6.199219-16.597657l.5-2.101562c1.300781-6.199219 3-12.398438 5.101562-18.398438 4.800781-13.101562 12.199219-25.101562 21.800781-35.300781 11.898438-12.300781 29.699219-20.699219 54.699219-25.601562 19.101562-4.097657 38.5-6.898438 58-8.300781 34.601562-1.699219 64.300781 8.601562 96.398438 33.601562 15.402343 11.199219 26.703124 27.101562 32.203124 45.398438 4.296876 15.703124 6.296876 31.902343 6 48.101562-.101562 15.300781-4.601562 30.199219-12.902343 43-3.199219 5-6.800781 9.699219-10.5 14.800781-7.300781 9-13.5 18.898438-18.597657 29.300781-8.601562 19.296876-11.800781 40.699219-9.300781 61.699219zm0 0"/><path d="m255 501.398438c-65.800781 0-127.699219-25.597657-174.300781-72.199219-46.5-46.5-72.097657-108.398438-72.097657-174.199219s25.597657-127.699219 72.199219-174.300781c46.5-46.5 108.398438-72.097657 174.199219-72.097657s127.699219 25.597657 174.300781 72.199219c46.5 46.5 72.199219 108.398438 72.199219 174.300781 0 65.796876-25.601562 127.699219-72.199219 174.296876-46.601562 46.402343-108.5 72-174.300781 72zm0-477.796876c-127.601562 0-231.398438 103.796876-231.398438 231.398438s103.796876 231.398438 231.398438 231.398438 231.398438-103.796876 231.398438-231.398438-103.796876-231.398438-231.398438-231.398438zm0 0"/><path d="m255 49.199219c-4.101562 0-7.5-3.398438-7.5-7.5v-34.199219c0-4.101562 3.398438-7.5 7.5-7.5s7.5 3.398438 7.5 7.5v34.101562c0 4.199219-3.398438 7.597657-7.5 7.597657zm0 0"/><path d="m502.5 271h-34.101562c-4.097657 0-7.5-3.398438-7.5-7.5s3.402343-7.5 7.5-7.5h34.101562c4.101562 0 7.5 3.398438 7.5 7.5s-3.398438 7.5-7.5 7.5zm0 0"/><path d="m41.699219 271h-34.199219c-4.101562 0-7.5-3.398438-7.5-7.5s3.398438-7.5 7.5-7.5h34.101562c4.097657 0 7.5 3.398438 7.5 7.5s-3.300781 7.5-7.402343 7.5zm0 0"/><path d="m255 510c-4.101562 0-7.5-3.398438-7.5-7.5v-34.101562c0-4.097657 3.398438-7.5 7.5-7.5s7.5 3.402343 7.5 7.5v34.101562c0 4.101562-3.398438 7.5-7.5 7.5zm0 0"/></symbol><symbol id="facial-recognition-4" viewBox="0 0 512 512"><title>facial-recognition-4</title><path d="m8.535156 76.800781c4.710938 0 8.53125-3.820312 8.53125-8.535156v-25.597656c0-14.140625 11.460938-25.601563 25.601563-25.601563h25.597656c4.714844 0 8.535156-3.820312 8.535156-8.53125 0-4.714844-3.820312-8.535156-8.535156-8.535156h-25.597656c-23.554688.0273438-42.6406252 19.113281-42.667969 42.667969v25.597656c0 4.714844 3.820312 8.535156 8.535156 8.535156zm0 0"/><path d="m68.265625 494.933594h-25.597656c-14.140625 0-25.601563-11.460938-25.601563-25.601563v-25.597656c0-4.714844-3.820312-8.535156-8.53125-8.535156-4.714844 0-8.535156 3.820312-8.535156 8.535156v25.597656c.0273438 23.554688 19.113281 42.640625 42.667969 42.667969h25.597656c4.714844 0 8.535156-3.820312 8.535156-8.535156 0-4.710938-3.820312-8.53125-8.535156-8.53125zm0 0"/><path d="m503.464844 435.199219c-4.710938 0-8.53125 3.820312-8.53125 8.535156v25.597656c0 14.140625-11.460938 25.601563-25.601563 25.601563h-25.597656c-4.714844 0-8.535156 3.820312-8.535156 8.53125 0 4.714844 3.820312 8.535156 8.535156 8.535156h25.597656c23.554688-.027344 42.640625-19.113281 42.667969-42.667969v-25.597656c0-4.714844-3.820312-8.535156-8.535156-8.535156zm0 0"/><path d="m469.332031 0h-25.597656c-4.714844 0-8.535156 3.820312-8.535156 8.535156 0 4.710938 3.820312 8.53125 8.535156 8.53125h25.597656c14.140625 0 25.601563 11.460938 25.601563 25.601563v25.597656c0 4.714844 3.820312 8.535156 8.53125 8.535156 4.714844 0 8.535156-3.820312 8.535156-8.535156v-25.597656c-.027344-23.554688-19.113281-42.6406252-42.667969-42.667969zm0 0"/><path d="m68.265625 34.132812h-17.066406c-9.425781 0-17.066407 7.640626-17.066407 17.066407v17.066406c0 4.714844 3.820313 8.535156 8.535157 8.535156 4.710937 0 8.53125-3.820312 8.53125-8.535156v-17.066406h17.066406c4.714844 0 8.535156-3.820313 8.535156-8.53125 0-4.714844-3.820312-8.535157-8.535156-8.535157zm0 0"/><path d="m68.265625 460.800781h-17.066406v-17.066406c0-4.714844-3.820313-8.535156-8.53125-8.535156-4.714844 0-8.535157 3.820312-8.535157 8.535156v17.066406c0 9.425781 7.640626 17.066407 17.066407 17.066407h17.066406c4.714844 0 8.535156-3.820313 8.535156-8.535157 0-4.710937-3.820312-8.53125-8.535156-8.53125zm0 0"/><path d="m443.734375 477.867188h17.066406c9.425781 0 17.066407-7.640626 17.066407-17.066407v-17.066406c0-4.714844-3.820313-8.535156-8.535157-8.535156-4.710937 0-8.53125 3.820312-8.53125 8.535156v17.066406h-17.066406c-4.714844 0-8.535156 3.820313-8.535156 8.53125 0 4.714844 3.820312 8.535157 8.535156 8.535157zm0 0"/><path d="m469.332031 76.800781c4.714844 0 8.535157-3.820312 8.535157-8.535156v-17.066406c0-9.425781-7.640626-17.066407-17.066407-17.066407h-17.066406c-4.714844 0-8.535156 3.820313-8.535156 8.535157 0 4.710937 3.820312 8.53125 8.535156 8.53125h17.066406v17.066406c0 4.714844 3.820313 8.535156 8.53125 8.535156zm0 0"/><path d="m503.464844 256c-.171875-133.269531-105.746094-242.519531-238.929688-247.253906v-.210938c0-4.714844-3.824218-8.535156-8.535156-8.535156s-8.535156 3.820312-8.535156 8.535156v.210938c-133.183594 4.734375-238.757813 113.984375-238.929688 247.253906-4.714844 0-8.535156 3.820312-8.535156 8.535156 0 4.710938 3.820312 8.53125 8.535156 8.53125h.65625c8.882813 126.367188 111.675782 225.671875 238.273438 230.1875v.210938c0 4.714844 3.824218 8.535156 8.535156 8.535156s8.535156-3.820312 8.535156-8.535156v-.210938c126.597656-4.515625 229.390625-103.820312 238.273438-230.1875h.65625c4.714844 0 8.535156-3.820312 8.535156-8.53125 0-4.714844-3.820312-8.535156-8.535156-8.535156zm-103.414063 179.625c.152344-1.121094.078125-2.265625-.222656-3.359375-1.601563-4.445313-3.835937-8.632813-6.636719-12.433594-1.414062-2-2.691406-4.09375-3.824218-6.265625-2.742188-5.574218-5.046876-11.359375-6.886719-17.296875-3.507813-11.757812-5.929688-23.816406-7.234375-36.019531-2.148438-18.003906.59375-36.253906 7.933594-52.835938 4.550781-9.253906 10.128906-17.960937 16.632812-25.960937 3.773438-5.03125 7.679688-10.238281 11.230469-15.800781 10.0625-15.460938 15.484375-33.480469 15.625-51.925782.375-17.90625-1.847657-35.773437-6.597657-53.042968-6.453124-21.71875-19.789062-40.75-38-54.230469-35.617187-27.640625-68.792968-39.117187-107.824218-37.121094-20.347656 1.378907-40.5625 4.230469-60.496094 8.535157-28.542969 5.691406-49.320312 15.683593-63.527344 30.546874-11.210937 11.828126-19.878906 25.824219-25.464844 41.132813-2.359374 6.695313-4.28125 13.535156-5.75 20.480469l-.488281 2.082031c-1.273437 4.660156-2.988281 9.1875-5.121093 13.523437-1.296876 2.886719-2.558594 5.769532-3.726563 8.738282-1.585937 3.628906-2.207031 7.605468-1.800781 11.546875 1.304687 6.089843 4.804687 11.492187 9.828125 15.171875 1.589843 1.304687 3.042969 2.773437 4.328125 4.378906-.238282.640625-.523438 1.261719-.855469 1.859375-7.382813 15.445313-16.429687 30.039063-26.980469 43.519531-5.46875 5.214844-8.597656 12.414063-8.679687 19.96875 1.402343 5.527344 4.992187 10.25 9.941406 13.082032 2.167969 1.488281 4.453125 2.800781 6.828125 3.925781 2.191406.988281 4.285156 2.1875 6.246094 3.582031.316406 1.578125.144531 3.210938-.496094 4.683594-.851562 1.871094-1.816406 3.484375-2.609375 4.890625-2.3125 4.046875-7.109375 12.460937.144531 18.492187 1.058594.929688 2.679688 2.210938 4.335938 3.492188-1.226563 2.664062-1.703125 5.613281-1.382813 8.53125.421875 3.070312 2.105469 5.828125 4.640625 7.613281 1.46875 1.011719 2.992188 1.945313 4.558594 2.796875 3.171875 1.800781 4.207031 2.507812 4.453125 3.464844.191406 2.144531-.050781 4.300781-.707031 6.347656-.367188 1.707031-.726563 3.371094-.964844 5.070312-.671875 5.984376.082031 12.042969 2.199219 17.679688 3.753906 12.78125 16.695312 20.53125 29.730469 17.8125 17.515624-4.164062 34.792968-9.265625 51.757812-15.285156 12.796875 8.234375 20.964844 31.429687 23.15625 40.242187.945312 3.804688 4.359375 6.476563 8.277344 6.476563l154.300781-.417969c-36.65625 26.339844-80.28125 41.261719-125.386719 42.890625v-16.855469c0-4.710937-3.824218-8.53125-8.535156-8.53125s-8.535156 3.820313-8.535156 8.53125v16.855469c-117.175782-4.492188-212.335938-96.1875-221.164063-213.121094h16.367188c4.710937 0 8.53125-3.820312 8.53125-8.53125 0-4.714844-3.820313-8.535156-8.53125-8.535156h-17.066407c.15625-123.851562 98.101563-225.472656 221.863282-230.1875v16.855469c0 4.710937 3.824218 8.53125 8.535156 8.53125s8.535156-3.820313 8.535156-8.53125v-16.855469c123.761719 4.714844 221.707032 106.335938 221.863282 230.1875h-17.066407c-4.710937 0-8.53125 3.820312-8.53125 8.535156 0 4.710938 3.820313 8.53125 8.53125 8.53125h16.367188c-4.742188 63.726563-35.769531 122.613282-85.648438 162.558594zm-133.929687-95.042969c-2.265625.050781-4.414063 1-5.976563 2.636719-1.566406 1.636719-2.414062 3.828125-2.359375 6.09375.109375 4.523438-3.550781 13.304688-29.296875 21.332031-1.84375.574219-5.496093 1.835938-10.332031 3.515625-4.457031 1.546875-9.953125 3.457032-15.96875 5.496094h-.058594c-17.421875 6.253906-35.167968 11.566406-53.164062 15.914062-2.253906.484376-4.605469.046876-6.53125-1.222656-1.925782-1.265625-3.261719-3.253906-3.707032-5.519531-1.222656-3.09375-1.699218-6.4375-1.390624-9.75.152343-1.214844.433593-2.425781.707031-3.636719 1.359375-4.648437 1.554687-9.558594.574219-14.300781-1.816407-6.042969-6.136719-11.011719-11.863282-13.65625.324219-.503906.675782-.996094 1.007813-1.421875 1.4375-1.820312 2.070312-4.144531 1.761719-6.441406-.3125-2.296875-1.546876-4.367188-3.417969-5.738282 0 0-3.105469-2.269531-5.972657-4.445312.972657-1.707031 2.082032-3.675781 3.15625-5.914062 2.214844-4.777344 2.871094-10.128907 1.878907-15.300782-1.707031-8.703125-9.558594-12.6875-15.308594-15.597656-1.699219-.777344-3.324219-1.710938-4.855469-2.78125-.582031-.417969-1.570312-1.152344-2.296875-1.785156 1.394531-2.367188 3.011719-4.601563 4.828125-6.664063 11.226563-14.320312 20.855469-29.820312 28.726563-46.222656 1.664062-2.890625 2.589843-6.148437 2.6875-9.480469-.632813-6.898437-4.246094-13.171875-9.890625-17.179687-1.707032-1.535157-4.265625-3.867188-4.402344-4.898438.09375-1.082031.382812-2.140625.851562-3.121093 1-2.628907 2.167969-5.199219 3.328126-7.773438 2.613281-5.332031 4.6875-10.910156 6.203124-16.652344l.496094-2.105468c1.304688-6.246094 3.015625-12.398438 5.121094-18.425782 4.777344-13.128906 12.195312-25.140625 21.800781-35.292968 11.707031-12.246094 29.550781-20.625 54.527344-25.597657 19.121094-4.140625 38.511719-6.898437 58.027344-8.253906 34.585937-1.707031 64.351562 8.601563 96.425781 33.5625 15.433594 11.1875 26.746094 27.152344 32.1875 45.421875 4.300781 15.664062 6.3125 31.863281 5.976562 48.101562-.105468 15.273438-4.585937 30.191407-12.914062 42.992188-3.207031 5-6.757812 9.738281-10.511719 14.753906-7.292969 9.027344-13.527343 18.859375-18.585937 29.304688-8.582032 19.390625-11.785156 40.734375-9.265625 61.789062 1.425781 13.226563 4.070312 26.296875 7.890625 39.039063 2.097656 6.761719 4.722656 13.351562 7.84375 19.703125.890625 1.800781 1.882812 3.542968 2.976562 5.222656l-135.039062.386719c-3.945313-13.183594-10.523438-25.425781-19.335938-35.996094l1.101563-.382813c4.597656-1.597656 8.0625-2.800781 9.804687-3.34375 27.785156-8.652343 41.675782-21.445312 41.285156-38.027343.011719-2.285157-.914062-4.472657-2.566406-6.050781-1.652344-1.578126-3.882812-2.40625-6.164062-2.285157zm0 0"/></symbol><symbol id="facial-recognition-5" viewBox="0 0 448 448"><title>facial-recognition-5</title><g> <g> <path d="M230.758,16.146c-33.922,0.002-60.018,8.565-60.018,18.817c0,0-106.049,21.359-106.049,118.855 c0,8.1,0.406,15.379,1.05,22.127h14.366C70.518,93.707,130.77,57.658,186.74,48.082v-8.715c5.814-3.034,21.432-7.198,44.018-7.198 c77.875,0,141.666,39.99,136.642,127.754h-63.461c-121.961,0-148.775-34.254-151.287-37.92 c-5.49-8.088-12.557-12.229-20.377-8.053c-23.627,12.59-35.686,35.93-41.252,61.994h15.535c0.035-0.205,0.066-0.397,0.114-0.66 c7-26.478,22.703-40.466,30.221-45.785c1.713,1.817,3.428,4.002,7.026,6.947c18.418,15.082,52.054,39.498,160.022,39.498h78.004 C395.922,70.05,324.45,16.146,230.758,16.146z"/> </g> </g><g> <g> <ellipse cx="163.712" cy="243.65" rx="19.856" ry="23.12"/> </g> </g><g> <g> <ellipse cx="284.232" cy="243.186" rx="19.848" ry="23.12"/> </g> </g><g> <g> <path d="M261.13,343.549c-1.297-3.381-5.062-5.096-8.443-3.83c-24.722,9.262-32.783,9.262-57.49,0 c-3.379-1.266-7.145,0.45-8.41,3.83c-1.266,3.381,0.449,7.146,3.828,8.412c13.859,5.207,23.602,7.802,33.344,7.802 c9.742,0,19.466-2.596,33.344-7.802C260.681,350.695,262.395,346.93,261.13,343.549z"/> </g> </g><g> <g> <path d="M0,191.969v128.18h84.393c13.035,77.32,106.034,111.705,139.557,111.705s126.522-34.385,139.565-111.705H448v-128.18H0z M16,304.148v-96.179h40.282c-1.394,0.797-2.789,1.592-4.05,2.634c-11.031,9.11-14.906,25.797-10.633,45.774 c4.346,20.375,14.221,35.543,31.187,47.771H16z M223.95,415.854c-25.713,0-109.74-28.918-123.133-95.705h246.275 C333.701,386.931,249.656,415.854,223.95,415.854z M350.254,300.47c-0.152,1.074-0.328,2.332-0.519,3.678H98.156 c-0.205-1.435-0.39-2.729-0.527-3.686c-20.955-11.07-35.054-22.474-40.39-47.43c-2.93-13.742-1-24.992,5.187-30.094 c8.371-6.939,20.451-0.043,29.594,3.828c0.33-6.191,0.621-12.199,1.096-18.799h261.662c0.472,6.589,0.771,12.616,1.102,18.799 c9.858-4.174,21.375-10.646,29.594-3.828c6.187,5.102,8.117,16.351,5.187,30.094C385.31,278.054,371.172,289.447,350.254,300.47z M432,304.148h-56.881c16.955-12.225,26.836-27.398,31.182-47.771c4.274-19.977,0.398-36.664-10.633-45.774 c-1.262-1.043-2.658-1.838-4.053-2.634H432V304.148z"/> </g> </g></symbol><symbol id="facial-recognition-6" viewBox="0 0 448 448"><title>facial-recognition-6</title><g> <g> <path d="M261.13,343.85c-1.297-3.381-5.062-5.096-8.443-3.83c-24.722,9.262-32.783,9.262-57.49,0 c-3.379-1.266-7.145,0.45-8.41,3.83c-1.266,3.381,0.449,7.146,3.828,8.412c13.859,5.207,23.602,7.802,33.344,7.802 c9.742,0,19.466-2.596,33.344-7.802C260.681,350.996,262.395,347.23,261.13,343.85z"/> </g> </g><g> <g> <path d="M374.195,96.981c-24.336-71.768-110.836-80.975-150.844-80.975c-39.492,0-53.266,8.512-53.266,18.817 c0,0-122.652,25.459-104.981,141.172h40.102c6.746-29.469,30.152-48.282,30.152-48.282s15.683,40.859,135.871,48.282h111.145 C385.645,153.766,384.488,127.332,374.195,96.981z"/> </g> </g><g> <g> <path d="M0,192.154v127.84h84.338c12.846,77.53,106.045,112,139.611,112s126.766-34.47,139.619-112H448v-127.84H0z M16,304.315 v-96.321h40.457c-1.459,0.82-2.91,1.662-4.226,2.75c-11.031,9.11-14.906,25.797-10.633,45.774 c4.313,20.213,14.078,35.617,30.797,47.797H16z M223.95,415.994c-25.75,0-110-29-123.199-96h246.408 C333.961,386.99,249.695,415.994,223.95,415.994z M350.253,300.611c-0.141,0.988-0.305,2.317-0.477,3.543H98.112 c-0.187-1.317-0.355-2.66-0.484-3.55c-20.955-11.07-35.054-22.474-40.39-47.43c-2.93-13.742-1-24.992,5.187-30.094 c4.69-3.887,10.544-3.383,16.392-1.551c10.701,22.633,25.141,34.183,25.141,34.183v-47.718H344v47.855 c0,0,13.072-11.934,24.418-34.096c6.154-2.049,12.186-2.713,17.054,1.326c6.187,5.102,8.117,16.351,5.187,30.094 C385.31,278.195,371.171,289.588,350.253,300.611z M432,207.994v96.32h-56.49c16.709-12.176,26.478-27.586,30.791-47.797 c4.274-19.977,0.398-36.664-10.633-45.774c-1.317-1.088-2.77-1.93-4.23-2.75L432,207.994L432,207.994z"/> </g> </g><g> <g> <ellipse cx="163.712" cy="243.95" rx="19.856" ry="23.12"/> </g> </g><g> <g> <ellipse cx="284.232" cy="243.486" rx="19.848" ry="23.12"/> </g> </g></symbol><symbol id="facial-recognition-8" viewBox="0 0 448 448"><title>facial-recognition-8</title><g> <g> <path d="M261.13,343.85c-1.297-3.381-5.062-5.096-8.443-3.83c-24.722,9.262-32.783,9.262-57.49,0 c-3.379-1.266-7.145,0.45-8.41,3.83c-1.266,3.381,0.449,7.146,3.828,8.412c13.859,5.207,23.602,7.802,33.344,7.802 c9.742,0,19.466-2.596,33.344-7.802C260.681,350.996,262.395,347.23,261.13,343.85z" data-original="#000000" class="active-path" data-old_color="#ffffff" fill="#ffffff"/> </g> </g><g> <g> <path d="M374.195,96.981c-24.336-71.768-110.836-80.975-150.844-80.975c-39.492,0-53.266,8.512-53.266,18.817 c0,0-122.652,25.459-104.981,141.172h40.102c6.746-29.469,30.152-48.282,30.152-48.282s15.683,40.859,135.871,48.282h111.145 C385.645,153.766,384.488,127.332,374.195,96.981z" data-original="#000000" class="active-path" data-old_color="#ffffff" fill="#ffffff"/> </g> </g><g> <g> <path d="M0,192.154v127.84h84.338c12.846,77.53,106.045,112,139.611,112s126.766-34.47,139.619-112H448v-127.84H0z M16,304.315 v-96.321h40.457c-1.459,0.82-2.91,1.662-4.226,2.75c-11.031,9.11-14.906,25.797-10.633,45.774 c4.313,20.213,14.078,35.617,30.797,47.797H16z M223.95,415.994c-25.75,0-110-29-123.199-96h246.408 C333.961,386.99,249.695,415.994,223.95,415.994z M350.253,300.611c-0.141,0.988-0.305,2.317-0.477,3.543H98.112 c-0.187-1.317-0.355-2.66-0.484-3.55c-20.955-11.07-35.054-22.474-40.39-47.43c-2.93-13.742-1-24.992,5.187-30.094 c4.69-3.887,10.544-3.383,16.392-1.551c10.701,22.633,25.141,34.183,25.141,34.183v-47.718H344v47.855 c0,0,13.072-11.934,24.418-34.096c6.154-2.049,12.186-2.713,17.054,1.326c6.187,5.102,8.117,16.351,5.187,30.094 C385.31,278.195,371.171,289.588,350.253,300.611z M432,207.994v96.32h-56.49c16.709-12.176,26.478-27.586,30.791-47.797 c4.274-19.977,0.398-36.664-10.633-45.774c-1.317-1.088-2.77-1.93-4.23-2.75L432,207.994L432,207.994z" data-original="#000000" class="active-path" data-old_color="#ffffff" fill="#ffffff"/> </g> </g><g> <g> <ellipse cx="163.712" cy="243.95" rx="19.856" ry="23.12" data-original="#000000" class="active-path" data-old_color="#ffffff" fill="#ffffff"/> </g> </g><g> <g> <ellipse cx="284.232" cy="243.486" rx="19.848" ry="23.12" data-original="#000000" class="active-path" data-old_color="#ffffff" fill="#ffffff"/> </g> </g></symbol><symbol id="facial-recognition-7" viewBox="0 0 448 448"><title>facial-recognition-7</title><g> <g> <path d="M230.758,16.146c-33.922,0.002-60.018,8.565-60.018,18.817c0,0-106.049,21.359-106.049,118.855 c0,8.1,0.406,15.379,1.05,22.127h14.366C70.518,93.707,130.77,57.658,186.74,48.082v-8.715c5.814-3.034,21.432-7.198,44.018-7.198 c77.875,0,141.666,39.99,136.642,127.754h-63.461c-121.961,0-148.775-34.254-151.287-37.92 c-5.49-8.088-12.557-12.229-20.377-8.053c-23.627,12.59-35.686,35.93-41.252,61.994h15.535c0.035-0.205,0.066-0.397,0.114-0.66 c7-26.478,22.703-40.466,30.221-45.785c1.713,1.817,3.428,4.002,7.026,6.947c18.418,15.082,52.054,39.498,160.022,39.498h78.004 C395.922,70.05,324.45,16.146,230.758,16.146z" data-original="#000000" class="active-path" data-old_color="#ffffff" fill="#ffffff"/> </g> </g><g> <g> <ellipse cx="163.712" cy="243.65" rx="19.856" ry="23.12" data-original="#000000" class="active-path" data-old_color="#ffffff" fill="#ffffff"/> </g> </g><g> <g> <ellipse cx="284.232" cy="243.186" rx="19.848" ry="23.12" data-original="#000000" class="active-path" data-old_color="#ffffff" fill="#ffffff"/> </g> </g><g> <g> <path d="M261.13,343.549c-1.297-3.381-5.062-5.096-8.443-3.83c-24.722,9.262-32.783,9.262-57.49,0 c-3.379-1.266-7.145,0.45-8.41,3.83c-1.266,3.381,0.449,7.146,3.828,8.412c13.859,5.207,23.602,7.802,33.344,7.802 c9.742,0,19.466-2.596,33.344-7.802C260.681,350.695,262.395,346.93,261.13,343.549z" data-original="#000000" class="active-path" data-old_color="#ffffff" fill="#ffffff"/> </g> </g><g> <g> <path d="M0,191.969v128.18h84.393c13.035,77.32,106.034,111.705,139.557,111.705s126.522-34.385,139.565-111.705H448v-128.18H0z M16,304.148v-96.179h40.282c-1.394,0.797-2.789,1.592-4.05,2.634c-11.031,9.11-14.906,25.797-10.633,45.774 c4.346,20.375,14.221,35.543,31.187,47.771H16z M223.95,415.854c-25.713,0-109.74-28.918-123.133-95.705h246.275 C333.701,386.931,249.656,415.854,223.95,415.854z M350.254,300.47c-0.152,1.074-0.328,2.332-0.519,3.678H98.156 c-0.205-1.435-0.39-2.729-0.527-3.686c-20.955-11.07-35.054-22.474-40.39-47.43c-2.93-13.742-1-24.992,5.187-30.094 c8.371-6.939,20.451-0.043,29.594,3.828c0.33-6.191,0.621-12.199,1.096-18.799h261.662c0.472,6.589,0.771,12.616,1.102,18.799 c9.858-4.174,21.375-10.646,29.594-3.828c6.187,5.102,8.117,16.351,5.187,30.094C385.31,278.054,371.172,289.447,350.254,300.47z M432,304.148h-56.881c16.955-12.225,26.836-27.398,31.182-47.771c4.274-19.977,0.398-36.664-10.633-45.774 c-1.262-1.043-2.658-1.838-4.053-2.634H432V304.148z" data-original="#000000" class="active-path" data-old_color="#ffffff" fill="#ffffff"/> </g> </g></symbol><symbol id="facial-recognition-3" viewBox="0 0 512 512"><title>facial-recognition-3</title><path d="m8.535156 76.800781c4.710938 0 8.53125-3.820312 8.53125-8.535156v-25.597656c0-14.140625 11.460938-25.601563 25.601563-25.601563h25.597656c4.714844 0 8.535156-3.820312 8.535156-8.53125 0-4.714844-3.820312-8.535156-8.535156-8.535156h-25.597656c-23.554688.0273438-42.6406252 19.113281-42.667969 42.667969v25.597656c0 4.714844 3.820312 8.535156 8.535156 8.535156zm0 0" data-original="#000000" class="active-path" data-old_color="#ffffff" fill="#ffffff"/><path d="m68.265625 494.933594h-25.597656c-14.140625 0-25.601563-11.460938-25.601563-25.601563v-25.597656c0-4.714844-3.820312-8.535156-8.53125-8.535156-4.714844 0-8.535156 3.820312-8.535156 8.535156v25.597656c.0273438 23.554688 19.113281 42.640625 42.667969 42.667969h25.597656c4.714844 0 8.535156-3.820312 8.535156-8.535156 0-4.710938-3.820312-8.53125-8.535156-8.53125zm0 0" data-original="#000000" class="active-path" data-old_color="#ffffff" fill="#ffffff"/><path d="m503.464844 435.199219c-4.710938 0-8.53125 3.820312-8.53125 8.535156v25.597656c0 14.140625-11.460938 25.601563-25.601563 25.601563h-25.597656c-4.714844 0-8.535156 3.820312-8.535156 8.53125 0 4.714844 3.820312 8.535156 8.535156 8.535156h25.597656c23.554688-.027344 42.640625-19.113281 42.667969-42.667969v-25.597656c0-4.714844-3.820312-8.535156-8.535156-8.535156zm0 0" data-original="#000000" class="active-path" data-old_color="#ffffff" fill="#ffffff"/><path d="m469.332031 0h-25.597656c-4.714844 0-8.535156 3.820312-8.535156 8.535156 0 4.710938 3.820312 8.53125 8.535156 8.53125h25.597656c14.140625 0 25.601563 11.460938 25.601563 25.601563v25.597656c0 4.714844 3.820312 8.535156 8.53125 8.535156 4.714844 0 8.535156-3.820312 8.535156-8.535156v-25.597656c-.027344-23.554688-19.113281-42.6406252-42.667969-42.667969zm0 0" data-original="#000000" class="active-path" data-old_color="#ffffff" fill="#ffffff"/><path d="m68.265625 34.132812h-17.066406c-9.425781 0-17.066407 7.640626-17.066407 17.066407v17.066406c0 4.714844 3.820313 8.535156 8.535157 8.535156 4.710937 0 8.53125-3.820312 8.53125-8.535156v-17.066406h17.066406c4.714844 0 8.535156-3.820313 8.535156-8.53125 0-4.714844-3.820312-8.535157-8.535156-8.535157zm0 0" data-original="#000000" class="active-path" data-old_color="#ffffff" fill="#ffffff"/><path d="m68.265625 460.800781h-17.066406v-17.066406c0-4.714844-3.820313-8.535156-8.53125-8.535156-4.714844 0-8.535157 3.820312-8.535157 8.535156v17.066406c0 9.425781 7.640626 17.066407 17.066407 17.066407h17.066406c4.714844 0 8.535156-3.820313 8.535156-8.535157 0-4.710937-3.820312-8.53125-8.535156-8.53125zm0 0" data-original="#000000" class="active-path" data-old_color="#ffffff" fill="#ffffff"/><path d="m443.734375 477.867188h17.066406c9.425781 0 17.066407-7.640626 17.066407-17.066407v-17.066406c0-4.714844-3.820313-8.535156-8.535157-8.535156-4.710937 0-8.53125 3.820312-8.53125 8.535156v17.066406h-17.066406c-4.714844 0-8.535156 3.820313-8.535156 8.53125 0 4.714844 3.820312 8.535157 8.535156 8.535157zm0 0" data-original="#000000" class="active-path" data-old_color="#ffffff" fill="#ffffff"/><path d="m469.332031 76.800781c4.714844 0 8.535157-3.820312 8.535157-8.535156v-17.066406c0-9.425781-7.640626-17.066407-17.066407-17.066407h-17.066406c-4.714844 0-8.535156 3.820313-8.535156 8.535157 0 4.710937 3.820312 8.53125 8.535156 8.53125h17.066406v17.066406c0 4.714844 3.820313 8.535156 8.53125 8.535156zm0 0" data-original="#000000" class="active-path" data-old_color="#ffffff" fill="#ffffff"/><path d="m503.464844 256c-.171875-133.269531-105.746094-242.519531-238.929688-247.253906v-.210938c0-4.714844-3.824218-8.535156-8.535156-8.535156s-8.535156 3.820312-8.535156 8.535156v.210938c-133.183594 4.734375-238.757813 113.984375-238.929688 247.253906-4.714844 0-8.535156 3.820312-8.535156 8.535156 0 4.710938 3.820312 8.53125 8.535156 8.53125h.65625c8.882813 126.367188 111.675782 225.671875 238.273438 230.1875v.210938c0 4.714844 3.824218 8.535156 8.535156 8.535156s8.535156-3.820312 8.535156-8.535156v-.210938c126.597656-4.515625 229.390625-103.820312 238.273438-230.1875h.65625c4.714844 0 8.535156-3.820312 8.535156-8.53125 0-4.714844-3.820312-8.535156-8.535156-8.535156zm-103.414063 179.625c.152344-1.121094.078125-2.265625-.222656-3.359375-1.601563-4.445313-3.835937-8.632813-6.636719-12.433594-1.414062-2-2.691406-4.09375-3.824218-6.265625-2.742188-5.574218-5.046876-11.359375-6.886719-17.296875-3.507813-11.757812-5.929688-23.816406-7.234375-36.019531-2.148438-18.003906.59375-36.253906 7.933594-52.835938 4.550781-9.253906 10.128906-17.960937 16.632812-25.960937 3.773438-5.03125 7.679688-10.238281 11.230469-15.800781 10.0625-15.460938 15.484375-33.480469 15.625-51.925782.375-17.90625-1.847657-35.773437-6.597657-53.042968-6.453124-21.71875-19.789062-40.75-38-54.230469-35.617187-27.640625-68.792968-39.117187-107.824218-37.121094-20.347656 1.378907-40.5625 4.230469-60.496094 8.535157-28.542969 5.691406-49.320312 15.683593-63.527344 30.546874-11.210937 11.828126-19.878906 25.824219-25.464844 41.132813-2.359374 6.695313-4.28125 13.535156-5.75 20.480469l-.488281 2.082031c-1.273437 4.660156-2.988281 9.1875-5.121093 13.523437-1.296876 2.886719-2.558594 5.769532-3.726563 8.738282-1.585937 3.628906-2.207031 7.605468-1.800781 11.546875 1.304687 6.089843 4.804687 11.492187 9.828125 15.171875 1.589843 1.304687 3.042969 2.773437 4.328125 4.378906-.238282.640625-.523438 1.261719-.855469 1.859375-7.382813 15.445313-16.429687 30.039063-26.980469 43.519531-5.46875 5.214844-8.597656 12.414063-8.679687 19.96875 1.402343 5.527344 4.992187 10.25 9.941406 13.082032 2.167969 1.488281 4.453125 2.800781 6.828125 3.925781 2.191406.988281 4.285156 2.1875 6.246094 3.582031.316406 1.578125.144531 3.210938-.496094 4.683594-.851562 1.871094-1.816406 3.484375-2.609375 4.890625-2.3125 4.046875-7.109375 12.460937.144531 18.492187 1.058594.929688 2.679688 2.210938 4.335938 3.492188-1.226563 2.664062-1.703125 5.613281-1.382813 8.53125.421875 3.070312 2.105469 5.828125 4.640625 7.613281 1.46875 1.011719 2.992188 1.945313 4.558594 2.796875 3.171875 1.800781 4.207031 2.507812 4.453125 3.464844.191406 2.144531-.050781 4.300781-.707031 6.347656-.367188 1.707031-.726563 3.371094-.964844 5.070312-.671875 5.984376.082031 12.042969 2.199219 17.679688 3.753906 12.78125 16.695312 20.53125 29.730469 17.8125 17.515624-4.164062 34.792968-9.265625 51.757812-15.285156 12.796875 8.234375 20.964844 31.429687 23.15625 40.242187.945312 3.804688 4.359375 6.476563 8.277344 6.476563l154.300781-.417969c-36.65625 26.339844-80.28125 41.261719-125.386719 42.890625v-16.855469c0-4.710937-3.824218-8.53125-8.535156-8.53125s-8.535156 3.820313-8.535156 8.53125v16.855469c-117.175782-4.492188-212.335938-96.1875-221.164063-213.121094h16.367188c4.710937 0 8.53125-3.820312 8.53125-8.53125 0-4.714844-3.820313-8.535156-8.53125-8.535156h-17.066407c.15625-123.851562 98.101563-225.472656 221.863282-230.1875v16.855469c0 4.710937 3.824218 8.53125 8.535156 8.53125s8.535156-3.820313 8.535156-8.53125v-16.855469c123.761719 4.714844 221.707032 106.335938 221.863282 230.1875h-17.066407c-4.710937 0-8.53125 3.820312-8.53125 8.535156 0 4.710938 3.820313 8.53125 8.53125 8.53125h16.367188c-4.742188 63.726563-35.769531 122.613282-85.648438 162.558594zm-133.929687-95.042969c-2.265625.050781-4.414063 1-5.976563 2.636719-1.566406 1.636719-2.414062 3.828125-2.359375 6.09375.109375 4.523438-3.550781 13.304688-29.296875 21.332031-1.84375.574219-5.496093 1.835938-10.332031 3.515625-4.457031 1.546875-9.953125 3.457032-15.96875 5.496094h-.058594c-17.421875 6.253906-35.167968 11.566406-53.164062 15.914062-2.253906.484376-4.605469.046876-6.53125-1.222656-1.925782-1.265625-3.261719-3.253906-3.707032-5.519531-1.222656-3.09375-1.699218-6.4375-1.390624-9.75.152343-1.214844.433593-2.425781.707031-3.636719 1.359375-4.648437 1.554687-9.558594.574219-14.300781-1.816407-6.042969-6.136719-11.011719-11.863282-13.65625.324219-.503906.675782-.996094 1.007813-1.421875 1.4375-1.820312 2.070312-4.144531 1.761719-6.441406-.3125-2.296875-1.546876-4.367188-3.417969-5.738282 0 0-3.105469-2.269531-5.972657-4.445312.972657-1.707031 2.082032-3.675781 3.15625-5.914062 2.214844-4.777344 2.871094-10.128907 1.878907-15.300782-1.707031-8.703125-9.558594-12.6875-15.308594-15.597656-1.699219-.777344-3.324219-1.710938-4.855469-2.78125-.582031-.417969-1.570312-1.152344-2.296875-1.785156 1.394531-2.367188 3.011719-4.601563 4.828125-6.664063 11.226563-14.320312 20.855469-29.820312 28.726563-46.222656 1.664062-2.890625 2.589843-6.148437 2.6875-9.480469-.632813-6.898437-4.246094-13.171875-9.890625-17.179687-1.707032-1.535157-4.265625-3.867188-4.402344-4.898438.09375-1.082031.382812-2.140625.851562-3.121093 1-2.628907 2.167969-5.199219 3.328126-7.773438 2.613281-5.332031 4.6875-10.910156 6.203124-16.652344l.496094-2.105468c1.304688-6.246094 3.015625-12.398438 5.121094-18.425782 4.777344-13.128906 12.195312-25.140625 21.800781-35.292968 11.707031-12.246094 29.550781-20.625 54.527344-25.597657 19.121094-4.140625 38.511719-6.898437 58.027344-8.253906 34.585937-1.707031 64.351562 8.601563 96.425781 33.5625 15.433594 11.1875 26.746094 27.152344 32.1875 45.421875 4.300781 15.664062 6.3125 31.863281 5.976562 48.101562-.105468 15.273438-4.585937 30.191407-12.914062 42.992188-3.207031 5-6.757812 9.738281-10.511719 14.753906-7.292969 9.027344-13.527343 18.859375-18.585937 29.304688-8.582032 19.390625-11.785156 40.734375-9.265625 61.789062 1.425781 13.226563 4.070312 26.296875 7.890625 39.039063 2.097656 6.761719 4.722656 13.351562 7.84375 19.703125.890625 1.800781 1.882812 3.542968 2.976562 5.222656l-135.039062.386719c-3.945313-13.183594-10.523438-25.425781-19.335938-35.996094l1.101563-.382813c4.597656-1.597656 8.0625-2.800781 9.804687-3.34375 27.785156-8.652343 41.675782-21.445312 41.285156-38.027343.011719-2.285157-.914062-4.472657-2.566406-6.050781-1.652344-1.578126-3.882812-2.40625-6.164062-2.285157zm0 0" data-original="#000000" class="active-path" data-old_color="#ffffff" fill="#ffffff"/></symbol></svg>